<svg id="Layer_1" data-name="Layer 1" xmlns="http://www.w3.org/2000/svg" xmlns:xlink="http://www.w3.org/1999/xlink" viewBox="0 0 146.01 162.94"><defs><style>.cls-1{fill:none;}.cls-2{clip-path:url(#clip-path);}.cls-3{fill:#ed5454;}</style><clipPath id="clip-path" transform="translate(3.23 -0.93)"><path class="cls-1" d="M2.16,12.42V53.52c0,62.91,42.41,108.85,66.91,108.85S137.4,116.42,137.4,53.52V12.42c0-5.18-54-10-69.1-10S2.16,6.3,2.16,12.42Z"/></clipPath></defs><title>Untitled-3</title><g class="cls-2"><path class="cls-3" d="M142.79,45.36a24.92,24.92,0,0,0-7.26,1,28.6,28.6,0,0,0-4,1.58c-1.75.83-3.13,1.59-4.4,2.07a10.68,10.68,0,0,1-4.06.78h0a14.85,14.85,0,0,1-4.23-.6,46.52,46.52,0,0,1-5.63-2.35,24,24,0,0,0-3.56-1.27,17.25,17.25,0,0,0-4.41-.57,19.27,19.27,0,0,0-5.78.93c-2.57.81-4.68,1.86-6.69,2.61a16.83,16.83,0,0,1-6.15,1.26,9.83,9.83,0,0,1-3.4-.53,14.24,14.24,0,0,1-2.07-1,33.57,33.57,0,0,0-4.39-2.17A19.27,19.27,0,0,0,69.74,46h0a24.89,24.89,0,0,0-7.26,1,28.5,28.5,0,0,0-4,1.58c-1.75.83-3.13,1.59-4.39,2.07a10.64,10.64,0,0,1-4.05.78h0a14.85,14.85,0,0,1-4.23-.6,46.52,46.52,0,0,1-5.63-2.35,24,24,0,0,0-3.56-1.27,17.25,17.25,0,0,0-4.41-.57,19.27,19.27,0,0,0-5.78.93c-2.57.81-4.68,1.86-6.69,2.61a16.83,16.83,0,0,1-6.15,1.26,9.86,9.86,0,0,1-3.39-.52,14,14,0,0,1-2-.95A33.13,33.13,0,0,0,3.7,47.81a19.3,19.3,0,0,0-6.93-1.18v8a11.55,11.55,0,0,1,3.76.54,13.44,13.44,0,0,1,2.1.94,38.24,38.24,0,0,0,4.2,2.11,17.73,17.73,0,0,0,6.65,1.2,23.11,23.11,0,0,0,6.34-.9,68.31,68.31,0,0,0,7-2.66A21.23,21.23,0,0,1,29.58,55a10.45,10.45,0,0,1,2.54-.33,9.55,9.55,0,0,1,3.14.54,25.47,25.47,0,0,1,2.51,1,44.66,44.66,0,0,0,5,2.09,22.92,22.92,0,0,0,7.13,1.13H50a18.58,18.58,0,0,0,6.3-1.08,31.83,31.83,0,0,0,3.56-1.55,34.73,34.73,0,0,1,4.42-2A16.6,16.6,0,0,1,69.72,54h0a11.51,11.51,0,0,1,3.77.55,13.65,13.65,0,0,1,2.13,1,38.77,38.77,0,0,0,4.23,2.13,17.72,17.72,0,0,0,6.67,1.21,23.11,23.11,0,0,0,6.34-.9,68.33,68.33,0,0,0,7-2.66,21.23,21.23,0,0,1,2.72-.91,10.45,10.45,0,0,1,2.54-.33,9.55,9.55,0,0,1,3.14.54,25.47,25.47,0,0,1,2.51,1,44.66,44.66,0,0,0,5,2.09A22.91,22.91,0,0,0,123,58.82H123a18.61,18.61,0,0,0,6.3-1.08,32,32,0,0,0,3.56-1.55,34.92,34.92,0,0,1,4.43-2,16.63,16.63,0,0,1,5.47-.84Z" transform="translate(3.23 -0.93)"/><path class="cls-3" d="M142.79,60.42a24.92,24.92,0,0,0-7.26,1,28.6,28.6,0,0,0-4,1.58c-1.75.83-3.13,1.59-4.4,2.07a10.68,10.68,0,0,1-4.06.78h0a14.85,14.85,0,0,1-4.22-.6,46.54,46.54,0,0,1-5.63-2.35,24,24,0,0,0-3.56-1.27,17.25,17.25,0,0,0-4.41-.57,19.27,19.27,0,0,0-5.78.93c-2.57.81-4.68,1.86-6.69,2.61a16.83,16.83,0,0,1-6.15,1.26,9.83,9.83,0,0,1-3.4-.53,14.24,14.24,0,0,1-2.07-1,33.57,33.57,0,0,0-4.39-2.17A19.27,19.27,0,0,0,69.74,61h0a24.89,24.89,0,0,0-7.26,1,28.5,28.5,0,0,0-4,1.58c-1.75.83-3.13,1.59-4.39,2.07a10.65,10.65,0,0,1-4.06.78h0a14.86,14.86,0,0,1-4.23-.6,46.53,46.53,0,0,1-5.63-2.35,24,24,0,0,0-3.56-1.27,17.25,17.25,0,0,0-4.41-.57,19.27,19.27,0,0,0-5.78.93c-2.57.81-4.68,1.86-6.69,2.61a16.83,16.83,0,0,1-6.15,1.26A9.86,9.86,0,0,1,10.1,66a14,14,0,0,1-2-.95A33.13,33.13,0,0,0,3.7,62.87a19.3,19.3,0,0,0-6.93-1.18v8a11.55,11.55,0,0,1,3.76.54,13.44,13.44,0,0,1,2.1.94,38.24,38.24,0,0,0,4.2,2.11,17.73,17.73,0,0,0,6.65,1.2,23.11,23.11,0,0,0,6.34-.9,68.31,68.31,0,0,0,7-2.66A21.23,21.23,0,0,1,29.58,70a10.45,10.45,0,0,1,2.54-.33,9.56,9.56,0,0,1,3.14.54,25.47,25.47,0,0,1,2.51,1,44.67,44.67,0,0,0,5,2.09,22.92,22.92,0,0,0,7.13,1.13H50a18.58,18.58,0,0,0,6.3-1.08,31.83,31.83,0,0,0,3.56-1.55,34.74,34.74,0,0,1,4.42-2A16.6,16.6,0,0,1,69.72,69h0a11.51,11.51,0,0,1,3.77.55,13.65,13.65,0,0,1,2.13,1,38.77,38.77,0,0,0,4.23,2.13,17.72,17.72,0,0,0,6.67,1.21,23.11,23.11,0,0,0,6.34-.9,68.33,68.33,0,0,0,7-2.66,21.23,21.23,0,0,1,2.72-.91,10.45,10.45,0,0,1,2.54-.33,9.56,9.56,0,0,1,3.14.54,25.47,25.47,0,0,1,2.51,1,44.67,44.67,0,0,0,5,2.09A22.92,22.92,0,0,0,123,73.88H123a18.61,18.61,0,0,0,6.3-1.08,32,32,0,0,0,3.56-1.55,34.92,34.92,0,0,1,4.43-2,16.63,16.63,0,0,1,5.47-.84Z" transform="translate(3.23 -0.93)"/><path class="cls-3" d="M92,88.27l.83-.22a68.33,68.33,0,0,0,7-2.66,21.23,21.23,0,0,1,2.72-.91,10.45,10.45,0,0,1,2.54-.33,9.56,9.56,0,0,1,3.14.54,25.47,25.47,0,0,1,2.51,1,44.67,44.67,0,0,0,5,2.09A22.92,22.92,0,0,0,123,88.95H123a18.61,18.61,0,0,0,6.3-1.08,32,32,0,0,0,3.56-1.55,34.92,34.92,0,0,1,4.43-2,16.63,16.63,0,0,1,5.47-.84v-8a24.92,24.92,0,0,0-7.26,1,28.6,28.6,0,0,0-4,1.58c-1.75.83-3.13,1.59-4.4,2.07a10.68,10.68,0,0,1-4.06.78h0a14.85,14.85,0,0,1-4.22-.6A46.54,46.54,0,0,1,113.13,78a24,24,0,0,0-3.56-1.27,17.25,17.25,0,0,0-4.41-.57,19.27,19.27,0,0,0-5.78.93c-2.57.81-4.68,1.86-6.69,2.61" transform="translate(3.23 -0.93)"/><path class="cls-3" d="M45.72,81a46.53,46.53,0,0,1-5.63-2.35,24,24,0,0,0-3.56-1.27,17.25,17.25,0,0,0-4.41-.57,19.27,19.27,0,0,0-5.78.93c-2.57.81-4.68,1.86-6.69,2.61a16.83,16.83,0,0,1-6.15,1.26A9.86,9.86,0,0,1,10.1,81a14,14,0,0,1-2-.95A33.13,33.13,0,0,0,3.7,77.94a19.3,19.3,0,0,0-6.93-1.18v8a11.55,11.55,0,0,1,3.76.54,13.44,13.44,0,0,1,2.1.94,38.24,38.24,0,0,0,4.2,2.11,17.73,17.73,0,0,0,6.65,1.2,23.11,23.11,0,0,0,6.34-.9,68.31,68.31,0,0,0,7-2.66,21.23,21.23,0,0,1,2.72-.91,10.45,10.45,0,0,1,2.54-.33,9.56,9.56,0,0,1,3.14.54,25.47,25.47,0,0,1,2.51,1,44.67,44.67,0,0,0,5,2.09,22.74,22.74,0,0,0,4.1.93" transform="translate(3.23 -0.93)"/><path class="cls-3" d="M69.77,138.1l-.32-1.47-20.38,4.44.32,1.47V141h0v0a4,4,0,0,1-1-.14l-.23-.09-.07,0h0l-.2.21.26-.12-.06-.09-.2.21.26-.12-.29.13h.32l0-.13-.29.13h.32l0-.11h0c.18-.53.84-2.31,1.43-3.95l1.15-3.14a1.5,1.5,0,0,0-.5-1.71L31.79,118l-.08-.05-.46.7.48-.69h0l-.46.7.48-.69h0a1.53,1.53,0,0,1-.26-.26l-.06-.1h0l-.22.07h.23v-.07l-.22.07h-.09l.31.09v-.09h-.32l.31.09-.14,0,.13.07v0l-.14,0,.13.07.07-.08a1.77,1.77,0,0,1,.28-.22h0l4.44-3a1.5,1.5,0,0,0,.61-1.66l-3-10.37,0-.14h0a3.16,3.16,0,0,1-.19-.92.75.75,0,0,1,0-.18h0l-.16-.05.13.1,0,0-.16-.05.13.1-.21-.16.11.25.11-.09-.21-.16.11.25h0a.85.85,0,0,1,.23,0,3.08,3.08,0,0,1,.59.07c3.74.75,9.67,1.76,9.68,1.76a1.5,1.5,0,0,0,1.56-.75l2.56-4.61-1.31-.73,1.27.8-.6-.38.58.41,0,0-.6-.38.58.41,0,0,.1-.09h0l-.05-.12v.12h.05l-.05-.12v0l0,.1h0v-.1l0,.1.06,0a1.23,1.23,0,0,1,.23.16h0c.78.69,2,1.78,3,2.7l1.82,1.66a1.5,1.5,0,0,0,2.48-1.41l-.45-2.15c-.41-1.94-1-4.88-1.54-7.43-.26-1.28-.5-2.45-.68-3.36l-.22-1.13c-.05-.29-.09-.5-.09-.53h0l-.11,0h.11v0l-.11,0h.11l0-.08.16-.21.17-.06a.55.55,0,0,1,.19,0h0l4.26,1.56,3.09,1.13a1.5,1.5,0,0,0,1.81-.65s6.37-10.89,7.15-12.24h0c.17-.27.28-.28.37-.29s.24,0,.47.35h0c.09.13.28.45.53.88.88,1.49,2.49,4.32,3.87,6.76l1.79,3.18L77.37,88a1.5,1.5,0,0,0,2,.61l2.54-1.28c1.35-.68,2.84-1.43,3.47-1.77h0a.44.44,0,0,1,.2,0,.67.67,0,0,1,.41.14l.07.08,0,.12V86h0c-.1.82-.62,4.6-1.11,8.16l-.66,4.78L84,101a1.5,1.5,0,0,0,2.51,1.3l.57-.53c.53-.49,1.35-1.25,2.16-2s1.62-1.44,2.06-1.79h0a4,4,0,0,1,.78-.49,1.2,1.2,0,0,1,.44-.13h0l0-.16-.11.12.08,0,0-.16-.11.12,0,0,0,0h0l0,0,0,0a.7.7,0,0,1,.12.23c.29.79.62,2,.87,3,.13.5.23.94.31,1.26l.12.51a1.5,1.5,0,0,0,1.81,1.13l3.72-.88c2-.46,4.26-1,5.28-1.19h0a1.72,1.72,0,0,1,.34,0,1.06,1.06,0,0,1,.79.3.92.92,0,0,1,.27.64l0,.21h0c-.1.37-.34,1.22-.64,2.27-.46,1.57-1.05,3.58-1.53,5.2l-.85,2.85a1.5,1.5,0,0,0,.59,1.67l1.78,1.2c1,.65,2.11,1.39,2.85,1.82l.07,0,.1-.11-.12.09,0,0,.1-.11-.12.09.38-.29h-.47l.09.29.38-.29h-.17l-.29-.06v.06h.3l-.29-.06h.06l-.06,0h.06l-.06,0a1.07,1.07,0,0,1-.18.29,3.7,3.7,0,0,1-.55.53h0l-3.13,2.6L90.53,132.13a1.5,1.5,0,0,0-.5,1.48s.29,1.3.62,2.84.72,3.31.9,4.24h0l0,.16v.06h0a.55.55,0,0,1-.22.12,1.92,1.92,0,0,1-.62.09,2.51,2.51,0,0,1-.51-.05L79.6,138.74,73,137.28l-2.93-.65a1.49,1.49,0,0,0-.64,0l.32,1.47-.32,1.46,9.51,2.1L89.62,144a5.5,5.5,0,0,0,1.12.11,4.45,4.45,0,0,0,2.44-.67,3,3,0,0,0,1.4-2.61,3.84,3.84,0,0,0-.08-.75h0C94.11,138.16,93,133,93,133l-1.46.33,1,1.15,2.48-2.07,8.57-7.15,3.86-3.22,2-1.63h0a6.29,6.29,0,0,0,1.19-1.24,3.24,3.24,0,0,0,.64-1.85,2.5,2.5,0,0,0-.41-1.38,3.06,3.06,0,0,0-1-1c-.6-.35-1.74-1.09-2.69-1.72l-1.23-.83-.51-.35-.85,1.24,1.44.43s.65-2.19,1.36-4.58c.35-1.2.72-2.44,1-3.49s.55-1.9.67-2.35h0a3.82,3.82,0,0,0,.12-1,3.91,3.91,0,0,0-1.14-2.75A4.07,4.07,0,0,0,105,98.39a4.71,4.71,0,0,0-.92.09h0c-1.11.22-3.36.74-5.37,1.21l-3.74.88L95.3,102l1.46-.33s-.18-.81-.44-1.84-.6-2.29-1-3.27A3.41,3.41,0,0,0,94.26,95a2.87,2.87,0,0,0-1.75-.58,4.08,4.08,0,0,0-1.69.4,6.93,6.93,0,0,0-1.39.87h0c-.38.3-.86.72-1.39,1.18-1.59,1.4-3.58,3.27-3.58,3.27l1,1.09,1.49.21s.47-3.35,1-6.9,1-7.32,1.12-8.2h0a3.59,3.59,0,0,0,0-.44,3.25,3.25,0,0,0-.33-1.43A3.33,3.33,0,0,0,87.36,83a3.69,3.69,0,0,0-1.8-.47A3.43,3.43,0,0,0,84,83h0c-.57.3-2.07,1.06-3.41,1.74L78,86l.67,1.34L80,86.58S78.46,83.87,76.83,81c-.82-1.44-1.67-2.93-2.37-4.15l-.92-1.59c-.26-.44-.46-.77-.6-1h0a3.58,3.58,0,0,0-3-1.72,3.44,3.44,0,0,0-3,1.78h0l-3.86,6.62-2.27,3.89-1,1.72,1.3.76.52-1.41-7.36-2.69h0A3.55,3.55,0,0,0,53.08,83a3.32,3.32,0,0,0-2.45,1.09,3.39,3.39,0,0,0-.91,2.26,2.89,2.89,0,0,0,0,.38h0c0,.12,0,.24.07.41.22,1.23,1,4.81,1.64,8.11s1.31,6.29,1.31,6.3l1.47-.31,1-1.11s-3.26-3-4.86-4.39h0A4,4,0,0,0,49.3,95a3,3,0,0,0-1.17-.24,2.87,2.87,0,0,0-1.18.26,3.35,3.35,0,0,0-1,.76,3.26,3.26,0,0,0-.38.48l0,.07L42.91,101l1.31.73.25-1.48-1-.17c-1.84-.32-5.87-1-8.61-1.57a6,6,0,0,0-1.18-.13,3.62,3.62,0,0,0-1.37.25,2.73,2.73,0,0,0-1.43,1.33,3.4,3.4,0,0,0-.32,1.51,5.57,5.57,0,0,0,.2,1.4,5.78,5.78,0,0,0,.2.63l1.39-.56-1.44.41,3,10.37,1.44-.41L34.49,112l-1.39.93-3.05,2h0a4.1,4.1,0,0,0-1.2,1.17,2.77,2.77,0,0,0-.45,1.5,2.86,2.86,0,0,0,.31,1.28,3.92,3.92,0,0,0,.84,1.1,4.16,4.16,0,0,0,.5.41l.83-1.25L30,120.41l18.52,14.07.91-1.19L48,132.77l-1.15,3.14c-.6,1.64-1.25,3.41-1.45,4h0a3.33,3.33,0,0,0-.2,1.1,2.67,2.67,0,0,0,.25,1.14,2.88,2.88,0,0,0,1.19,1.25,5,5,0,0,0,1.77.57,7,7,0,0,0,1,.08h0a1.42,1.42,0,0,0,.31,0l20.38-4.44-.32-1.47-.32,1.46Z" transform="translate(3.23 -0.93)"/><path class="cls-3" d="M73.69,130.58H65.87a3,3,0,0,1-3-3v-6.91a3,3,0,0,1,3-3h7.82a3,3,0,0,1,3,3v6.91A3,3,0,0,1,73.69,130.58Zm-3.91-8.15a1.29,1.29,0,0,0-1.32,1.27,1.26,1.26,0,0,0,.63,1.08c0,2,.14,2.31.69,2.31s.67-.36.67-2.3a1.26,1.26,0,0,0,.65-1.09A1.29,1.29,0,0,0,69.78,122.42Z" transform="translate(3.23 -0.93)"/><path class="cls-3" d="M67,118.37v-3.62a1.09,1.09,0,0,1,.16-.55,2.16,2.16,0,0,1,.93-.8,3.78,3.78,0,0,1,1.65-.36,3.55,3.55,0,0,1,2.06.61,1.87,1.87,0,0,1,.53.56,1.09,1.09,0,0,1,.16.55v3.59h2v-3.59a3.09,3.09,0,0,0-.43-1.56,4.14,4.14,0,0,0-1.78-1.59,5.77,5.77,0,0,0-2.53-.57,5.53,5.53,0,0,0-3.24,1,3.86,3.86,0,0,0-1.08,1.17,3.09,3.09,0,0,0-.43,1.56v3.62h2Z" transform="translate(3.23 -0.93)"/><path class="cls-3" d="M34.62,23.59a1.46,1.46,0,0,1,2.93,0V35.31a1.47,1.47,0,0,1-1.46,1.46,1.37,1.37,0,0,1-1-.44,1.3,1.3,0,0,1-.31-.41,5.87,5.87,0,0,1-8.92-5V23.59a1.46,1.46,0,0,1,2.93,0v7.32a2.93,2.93,0,1,0,5.86,0Z" transform="translate(3.23 -0.93)"/><path class="cls-3" d="M40.48,17.73a1.46,1.46,0,0,1,2.93,0v5.16a5.7,5.7,0,0,1,2.93-.76A5.85,5.85,0,0,1,52.2,28v2.93a5.88,5.88,0,0,1-8.92,5,1.44,1.44,0,0,1-.29.41,1.46,1.46,0,0,1-2.5-1ZM43.41,28v2.93a2.93,2.93,0,1,0,5.86,0V28a2.93,2.93,0,1,0-5.86,0Z" transform="translate(3.23 -0.93)"/><path class="cls-3" d="M58.06,30.91A2.82,2.82,0,0,0,58.92,33a3.85,3.85,0,0,0,2.8.86A3.41,3.41,0,0,0,64.24,33l0,0a1.4,1.4,0,0,1,1-.42,1.46,1.46,0,0,1,1,2.49l0,0h0a6.19,6.19,0,0,1-4.58,1.71,6.59,6.59,0,0,1-4.88-1.71,5.64,5.64,0,0,1-1.71-4.15V28a5.64,5.64,0,0,1,1.71-4.15,6.59,6.59,0,0,1,4.88-1.71,6.19,6.19,0,0,1,4.58,1.71h0a1.45,1.45,0,0,1,.42,1,1.47,1.47,0,0,1-1.46,1.46,1.37,1.37,0,0,1-1-.44h0a3.41,3.41,0,0,0-2.52-.86,3.85,3.85,0,0,0-2.8.86A2.82,2.82,0,0,0,58.06,28Z" transform="translate(3.23 -0.93)"/><path class="cls-3" d="M72.71,30.91A2.82,2.82,0,0,0,73.57,33a3.85,3.85,0,0,0,2.8.86A3.41,3.41,0,0,0,78.89,33l0,0a1.4,1.4,0,0,1,1-.42A1.46,1.46,0,0,1,81,35l0,0h0a6.19,6.19,0,0,1-4.58,1.71,6.59,6.59,0,0,1-4.88-1.71,5.64,5.64,0,0,1-1.71-4.15V28a5.64,5.64,0,0,1,1.71-4.15,6.59,6.59,0,0,1,4.88-1.71A6.19,6.19,0,0,1,81,23.84h0a1.45,1.45,0,0,1,.42,1,1.47,1.47,0,0,1-1.46,1.46,1.37,1.37,0,0,1-1-.44h0a3.41,3.41,0,0,0-2.52-.86,3.85,3.85,0,0,0-2.8.86A2.82,2.82,0,0,0,72.71,28Z" transform="translate(3.23 -0.93)"/><path class="cls-3" d="M93.22,33.84h1.46a1.46,1.46,0,0,1,0,2.93H93.22a5.85,5.85,0,0,1-5.86-5.86V25.05H85.89a1.46,1.46,0,0,1,0-2.93h1.46V17.73a1.46,1.46,0,0,1,2.93,0v4.39h4.39a1.46,1.46,0,0,1,0,2.93H90.29v5.86a2.93,2.93,0,0,0,2.93,2.93Z" transform="translate(3.23 -0.93)"/><path class="cls-3" d="M107.87,16.26h1.46a1.46,1.46,0,0,1,0,2.93h-1.46a2.93,2.93,0,0,0-2.93,2.93h4.39a1.46,1.46,0,0,1,0,2.93h-4.39V35.31a1.46,1.46,0,0,1-2.93,0V25.05h-1.46a1.46,1.46,0,0,1,0-2.93H102a5.85,5.85,0,0,1,5.86-5.86Z" transform="translate(3.23 -0.93)"/></g><path class="cls-3" d="M2.16,12.42H.66s0,27.54,0,41.09A137.7,137.7,0,0,0,25.2,132.4a97.07,97.07,0,0,0,22.21,23c7.59,5.4,15.07,8.43,21.66,8.44s14.15-3,21.87-8.43c11.57-8.11,23.52-21.65,32.63-39.14A136.19,136.19,0,0,0,138.9,53.52V12.42a2.4,2.4,0,0,0-.39-1.29,4.53,4.53,0,0,0-1.67-1.43,23.39,23.39,0,0,0-5.08-1.83A138.17,138.17,0,0,0,117.3,5.13c-8.53-1.25-18.5-2.29-27.48-3S72.88.93,68.3.93c-7.64,0-24.18,1-38.9,2.71A174.16,174.16,0,0,0,10,6.82,33,33,0,0,0,3.73,8.88a7.86,7.86,0,0,0-2,1.34,3.67,3.67,0,0,0-.72.94,2.73,2.73,0,0,0-.32,1.26H3.3l.35.09v-.09H3.3l.35.09-.15,0,.13.07v0l-.15,0,.13.07a1.85,1.85,0,0,1,.57-.5,16.49,16.49,0,0,1,4.08-1.66,104.52,104.52,0,0,1,13.35-2.7A397.47,397.47,0,0,1,68.3,3.93c3.7,0,9.89.3,17,.83,10.74.8,23.7,2.11,33.93,3.71A111,111,0,0,1,131.9,11a18.15,18.15,0,0,1,3.43,1.28,2.72,2.72,0,0,1,.63.43l0,0,.46-.33h-.54a.62.62,0,0,0,.08.33l.46-.33h-.54c0,5.18,0,25.54,0,41.09a132.4,132.4,0,0,1-24.69,77.14,96.23,96.23,0,0,1-22,22.33c-7.39,5.18-14.5,7.9-20.15,7.89s-12.67-2.7-19.92-7.88c-10.89-7.76-22.3-21-30.94-38.06A136.26,136.26,0,0,1,3.66,53.52V12.42Z" transform="translate(3.23 -0.93)"/></svg>