<!-- Originally designed by Kristen -->
<!-- https://www.figma.com/design/yiWLu3oMvW1kkYt0UnOkJE/Maple-Bacon-Logo?node-id=0-1&t=ZBMegTKp5LYJ5NY0-1 -->
<svg width="140" height="164" viewBox="0 0 140 164" fill="none" xmlns="http://www.w3.org/2000/svg">
	<path
		d="M2.12156 10.5793L2.12158 10.5793C2.5282 10.2547 3.12562 9.93355 3.88914 9.61684C5.417 8.98307 7.61549 8.36474 10.2996 7.77031C15.6685 6.58132 22.9855 5.48685 30.7798 4.556C45.398 2.81017 61.7122 1.63801 70 1.5002C78.2878 1.63801 94.602 2.81017 109.22 4.556C117.014 5.48685 124.332 6.58132 129.7 7.77031C132.385 8.36474 134.583 8.98307 136.111 9.61684C136.874 9.93355 137.472 10.2547 137.878 10.5793L138.814 9.407L137.878 10.5793C138.291 10.9089 138.5 11.236 138.5 11.5589V52.9173C138.5 84.615 127.408 112.012 113.211 131.485C106.113 141.221 98.2393 148.977 90.5874 154.3C83.2296 159.417 76.069 162.29 70 162.499C63.9311 162.29 56.7704 159.417 49.4126 154.3C41.7607 148.977 33.8865 141.221 26.7885 131.485C12.5924 112.012 1.5 84.615 1.5 52.9173V11.5589C1.5 11.236 1.70873 10.9088 2.12156 10.5793Z"
		stroke="#ED5454" stroke-width="3" stroke-miterlimit="10" />
	<path
		d="M2.12156 10.5793L2.12158 10.5793C2.5282 10.2547 3.12562 9.93355 3.88914 9.61684C5.417 8.98307 7.61549 8.36474 10.2996 7.77031C15.6685 6.58132 22.9855 5.48685 30.7798 4.556C45.398 2.81017 61.7122 1.63801 70 1.5002C78.2878 1.63801 94.602 2.81017 109.22 4.556C117.014 5.48685 124.332 6.58132 129.7 7.77031C132.385 8.36474 134.583 8.98307 136.111 9.61684C136.874 9.93355 137.472 10.2547 137.878 10.5793L138.814 9.407L137.878 10.5793C138.291 10.9089 138.5 11.236 138.5 11.5589V52.9173C138.5 84.615 127.408 112.012 113.211 131.485C106.113 141.221 98.2393 148.977 90.5874 154.3C83.2296 159.417 76.069 162.29 70 162.499C63.9311 162.29 56.7704 159.417 49.4126 154.3C41.7607 148.977 33.8865 141.221 26.7885 131.485C12.5924 112.012 1.5 84.615 1.5 52.9173V11.5589C1.5 11.236 1.70873 10.9088 2.12156 10.5793Z"
		stroke="#ED5454" stroke-width="3" stroke-miterlimit="10" />
	<path
		d="M70.5173 132.177C70.175 132.117 69.825 132.117 69.4827 132.177L50.2775 135.539C48.0052 135.937 46.153 133.729 46.9404 131.56L48.0083 128.619C48.1235 128.309 48.1382 127.969 48.0504 127.65C47.9627 127.33 47.7769 127.046 47.5191 126.837L28.238 111.252C26.5126 109.857 26.8456 107.137 28.8564 106.199L29.686 105.813C30.0363 105.647 30.3141 105.36 30.4672 105.005C30.6203 104.65 30.6383 104.251 30.5177 103.884L27.5773 94.8571C26.8619 92.6612 28.792 90.5145 31.0513 90.993L39.2263 92.7244C39.5855 92.7992 39.9596 92.7476 40.2851 92.5785C40.6105 92.4094 40.8674 92.1331 41.0121 91.7965L41.7739 90.0077C42.624 88.0115 45.2466 87.55 46.7271 89.1362L53.9282 96.8511C54.1648 97.1002 54.476 97.2661 54.815 97.3237C55.154 97.3814 55.5026 97.3278 55.8085 97.171C56.1144 97.0142 56.3611 96.7626 56.5117 96.454C56.6622 96.1454 56.7085 95.7964 56.6435 95.4593L52.9079 76.2297C52.4174 73.7046 55.124 71.7736 57.352 73.059L59.6524 74.3862C59.8402 74.4961 60.0486 74.5663 60.2647 74.5925C60.4808 74.6187 60.7 74.6003 60.9087 74.5385C61.1174 74.4767 61.3112 74.3728 61.478 74.2332C61.6448 74.0936 61.7811 73.9212 61.8785 73.7269L67.3276 63.0448C68.4409 60.8625 71.5591 60.8625 72.6724 63.0449L78.1215 73.7269C78.2189 73.9212 78.3552 74.0936 78.522 74.2332C78.6888 74.3728 78.8826 74.4767 79.0913 74.5385C79.3 74.6003 79.5192 74.6187 79.7353 74.5925C79.9514 74.5663 80.1598 74.4961 80.3476 74.3862L82.648 73.059C84.876 71.7736 87.5826 73.7046 87.0921 76.2297L83.3565 95.4593C83.2915 95.7964 83.3378 96.1454 83.4883 96.454C83.6389 96.7626 83.8856 97.0142 84.1915 97.171C84.4974 97.3278 84.846 97.3814 85.185 97.3237C85.524 97.2661 85.8352 97.1002 86.0718 96.8511L93.2729 89.1362C94.7534 87.55 97.376 88.0115 98.2261 90.0077L98.9879 91.7965C99.1326 92.1331 99.3895 92.4094 99.7149 92.5785C100.04 92.7476 100.414 92.7992 100.774 92.7244L108.949 90.993C111.208 90.5145 113.138 92.6612 112.423 94.8571L109.482 103.884C109.362 104.251 109.38 104.65 109.533 105.005C109.686 105.36 109.964 105.647 110.314 105.813L111.144 106.199C113.154 107.137 113.487 109.857 111.762 111.252L92.4809 126.837C92.2231 127.046 92.0373 127.33 91.9496 127.65C91.8618 127.969 91.8765 128.309 91.9917 128.619L93.0596 131.56C93.847 133.729 91.9948 135.937 89.7225 135.539L70.5173 132.177Z"
		stroke="#ED5454" stroke-width="3" />
	<path fill-rule="evenodd" clip-rule="evenodd"
		d="M111 91.2873V83.4588H85.6877L83.3565 95.4593C83.2915 95.7964 83.3378 96.1454 83.4883 96.454C83.6234 96.7309 83.8359 96.9619 84.0991 97.1197H85.7366C85.8592 97.0462 85.9721 96.956 86.0718 96.8511L93.2729 89.1362C94.7534 87.55 97.376 88.0115 98.2261 90.0077L98.9879 91.7965C99.1326 92.1331 99.3895 92.4094 99.7149 92.5785C100.04 92.7476 100.414 92.7992 100.774 92.7244L108.949 90.993C109.697 90.8346 110.408 90.9638 111 91.2873ZM31.0513 90.993C30.3035 90.8346 29.5917 90.9638 29 91.2873V83.4588H54.3123L56.6436 95.4593C56.7085 95.7964 56.6622 96.1454 56.5117 96.454C56.3766 96.7309 56.1641 96.9619 55.9009 97.1197H54.2634C54.1408 97.0462 54.0279 96.956 53.9282 96.8511L46.7271 89.1362C45.2466 87.55 42.624 88.0115 41.7739 90.0077L41.0121 91.7965C40.8674 92.1331 40.6105 92.4094 40.2851 92.5785C39.9596 92.7476 39.5855 92.7992 39.2263 92.7244L31.0513 90.993Z"
		fill="#ED5454" />
	<path fill-rule="evenodd" clip-rule="evenodd"
		d="M0.0184845 55.1702C0.0061964 54.4217 0 53.6707 0 52.9173V44.1253C0.836442 44.1738 1.65356 44.2758 2.45645 44.4225C3.76494 44.6617 4.98221 45.0103 6.10464 45.3927L6.10466 45.3927C7.43941 45.8474 8.72148 46.38 9.82051 46.8366L9.82055 46.8366L9.88767 46.8645C11.0583 47.3508 12.0337 47.7538 12.9981 48.0824L12.9981 48.0824C13.7585 48.3415 14.4373 48.5272 15.0773 48.6442C15.6323 48.7457 16.1531 48.7944 16.6667 48.7944C17.1803 48.7944 17.7012 48.7457 18.2562 48.6442C18.8961 48.5272 19.5748 48.3415 20.335 48.0825C21.2995 47.7539 22.2749 47.3508 23.4457 46.8645L23.5127 46.8367C24.6118 46.3801 25.8939 45.8474 27.2287 45.3927L28.6902 49.6825L27.2287 45.3927C28.3511 45.0103 29.5684 44.6617 30.8769 44.4225L31.7285 49.0815L30.8769 44.4225C32.0316 44.2114 33.2157 44.093 34.4444 44.093C35.6732 44.093 36.8573 44.2114 38.012 44.4225C39.3205 44.6617 40.5378 45.0103 41.6602 45.3927L39.8865 50.5988L41.6602 45.3927C42.995 45.8474 44.277 46.38 45.3761 46.8366L45.4432 46.8645C46.6139 47.3508 47.5893 47.7538 48.5537 48.0824L46.78 53.2885L48.5537 48.0824C49.3141 48.3415 49.9928 48.5272 50.6328 48.6442C51.1878 48.7457 51.7087 48.7944 52.2222 48.7944C52.7358 48.7944 53.2567 48.7457 53.8118 48.6442C54.4517 48.5272 55.1303 48.3415 55.8906 48.0825C56.8551 47.7539 57.8305 47.3508 59.0012 46.8645L59.0684 46.8366L59.0685 46.8365C60.1675 46.38 61.4495 45.8474 62.7842 45.3927C63.9067 45.0103 65.124 44.6617 66.4324 44.4225C67.5872 44.2114 68.7713 44.093 70 44.093C71.2287 44.093 72.4129 44.2115 73.5676 44.4225C74.876 44.6617 76.0933 45.0102 77.2158 45.3927L75.7636 49.6551L77.2158 45.3927C78.5504 45.8474 79.8324 46.3799 80.9314 46.8365L80.9314 46.8365L80.9988 46.8645C82.1694 47.3508 83.1448 47.7538 84.1093 48.0824L82.3398 53.2761L84.1093 48.0824C84.8697 48.3415 85.5484 48.5272 86.1884 48.6442C86.7434 48.7457 87.2642 48.7944 87.7778 48.7944C88.2914 48.7944 88.8123 48.7457 89.3673 48.6442C90.0072 48.5272 90.6859 48.3415 91.4461 48.0825C92.4106 47.7539 93.386 47.3508 94.5568 46.8645L94.6237 46.8367C95.7228 46.3801 97.005 45.8474 98.3398 45.3927L99.7814 49.624L98.3398 45.3927C99.4622 45.0103 100.68 44.6617 101.988 44.4225L102.783 48.7715L101.988 44.4225C103.143 44.2114 104.327 44.093 105.556 44.093C106.784 44.093 107.968 44.2114 109.123 44.4225C110.432 44.6617 111.649 45.0103 112.771 45.3927L111.319 49.6551L112.771 45.3927C114.106 45.8474 115.388 46.3799 116.487 46.8365L116.487 46.8365L116.554 46.8645C117.725 47.3508 118.7 47.7538 119.665 48.0824C120.425 48.3415 121.104 48.5272 121.744 48.6442C122.299 48.7457 122.82 48.7944 123.333 48.7944C123.847 48.7944 124.368 48.7457 124.923 48.6442C125.563 48.5272 126.241 48.3415 127.002 48.0825C127.966 47.7539 128.942 47.3508 130.112 46.8645L130.179 46.8368C131.278 46.3802 132.56 45.8475 133.895 45.3927L135.669 50.5988L133.895 45.3927C135.018 45.0103 136.235 44.6617 137.544 44.4225C138.346 44.2758 139.164 44.1738 140 44.1253V52.9173C140 53.6707 139.994 54.4217 139.982 55.1702C139.831 55.1904 139.677 55.2147 139.522 55.2432C138.882 55.3602 138.203 55.5459 137.443 55.805C136.478 56.1336 135.503 56.5366 134.332 57.0229L132.222 51.9437L134.332 57.0229L134.265 57.0509L134.264 57.051C133.166 57.5076 131.884 58.0401 130.549 58.4948C129.427 58.8772 128.209 59.2257 126.901 59.4649C125.746 59.676 124.562 59.7944 123.333 59.7944C122.105 59.7944 120.921 59.676 119.766 59.4649C118.457 59.2257 117.24 58.8771 116.117 58.4947C114.783 58.0399 113.501 57.5074 112.402 57.0508L112.335 57.0229C111.164 56.5366 110.188 56.1335 109.224 55.805C108.464 55.5459 107.785 55.3602 107.145 55.2432C106.59 55.1418 106.069 55.093 105.556 55.093C105.042 55.093 104.521 55.1418 103.966 55.2432C103.326 55.3602 102.647 55.5459 101.887 55.805C100.923 56.1336 99.9473 56.5366 98.7766 57.0229L98.7093 57.0509C97.6103 57.5074 96.3283 58.04 94.9936 58.4948C93.8711 58.8772 92.6539 59.2257 91.3454 59.4649C90.1907 59.676 89.0065 59.7944 87.7778 59.7944C86.5492 59.7944 85.3651 59.676 84.2105 59.4649C82.9018 59.2257 81.6843 58.8771 80.5618 58.4947C79.2271 58.0399 77.945 57.5073 76.846 57.0508L76.779 57.0229C75.6083 56.5366 74.6328 56.1335 73.6684 55.805C72.9081 55.5459 72.2294 55.3602 71.5895 55.2432C71.0345 55.1418 70.5136 55.093 70 55.093C69.4864 55.093 68.9655 55.1418 68.4105 55.2432C67.7706 55.3602 67.0919 55.5459 66.3316 55.805C65.3672 56.1335 64.3917 56.5366 63.221 57.0229L63.1537 57.0509C62.0547 57.5074 60.7727 58.04 59.438 58.4948C58.3156 58.8772 57.0983 59.2257 55.7898 59.4649C54.6351 59.676 53.451 59.7944 52.2222 59.7944C50.9936 59.7944 49.8096 59.676 48.6549 59.4649C47.3463 59.2257 46.1288 58.8771 45.0062 58.4947C43.6716 58.04 42.3897 57.5074 41.2908 57.0509L41.2906 57.0508L41.2234 57.0229C40.0527 56.5366 39.0773 56.1335 38.1128 55.805C37.3525 55.5459 36.6739 55.3602 36.034 55.2432C35.4789 55.1418 34.9581 55.093 34.4444 55.093C33.9308 55.093 33.41 55.1418 32.8549 55.2432C32.215 55.3602 31.5363 55.5459 30.7761 55.805C29.8116 56.1336 28.8362 56.5366 27.6655 57.0229L25.9174 52.8148L27.6655 57.0229L27.5983 57.0508L27.5983 57.0508C26.4992 57.5074 25.2172 58.04 23.8824 58.4948C22.76 58.8772 21.5427 59.2257 20.2342 59.4649L19.2466 54.062L20.2342 59.4649C19.0795 59.676 17.8954 59.7944 16.6667 59.7944C15.438 59.7944 14.254 59.676 13.0994 59.4649C11.7907 59.2257 10.5732 58.8771 9.45064 58.4947C8.11601 58.04 6.83408 57.5074 5.73515 57.0509L5.73512 57.0508L5.66788 57.0229C4.49716 56.5366 3.52172 56.1335 2.55726 55.805C1.79699 55.5459 1.11832 55.3602 0.478419 55.2432L0.478412 55.2432C0.322611 55.2147 0.169499 55.1904 0.0184845 55.1702Z"
		fill="#ED5454" />
	<path fill-rule="evenodd" clip-rule="evenodd"
		d="M1.4021 72.4519C0.86819 68.7566 0.478143 64.9841 0.246933 61.1412C0.997487 61.1943 1.73275 61.2902 2.45645 61.4225C3.76493 61.6617 4.98221 62.0103 6.10464 62.3927L6.10466 62.3927C7.4394 62.8474 8.72147 63.38 9.8205 63.8366L9.82051 63.8366L9.82054 63.8366L9.88767 63.8645C11.0583 64.3508 12.0337 64.7538 12.9981 65.0824L12.9981 65.0824C13.7585 65.3415 14.4373 65.5272 15.0773 65.6442C15.6323 65.7457 16.1531 65.7944 16.6667 65.7944C17.1803 65.7944 17.7012 65.7457 18.2562 65.6442C18.8961 65.5272 19.5748 65.3415 20.335 65.0825C21.2995 64.7539 22.2749 64.3508 23.4457 63.8645L23.5127 63.8367C24.6118 63.3801 25.8939 62.8474 27.2287 62.3927L28.6902 66.6825L27.2287 62.3927C28.3511 62.0103 29.5684 61.6617 30.8769 61.4225L31.7285 66.0815L30.8769 61.4225C32.0316 61.2114 33.2157 61.093 34.4444 61.093C35.6732 61.093 36.8573 61.2114 38.012 61.4225C39.3205 61.6617 40.5378 62.0103 41.6602 62.3927L39.8865 67.5988L41.6602 62.3927C42.995 62.8474 44.277 63.38 45.376 63.8366L45.3761 63.8366L45.4432 63.8645C46.6139 64.3508 47.5893 64.7538 48.5537 65.0824L46.7799 70.2885L48.5537 65.0824C49.3141 65.3415 49.9928 65.5272 50.6328 65.6442C51.1878 65.7457 51.7087 65.7944 52.2222 65.7944C52.7358 65.7944 53.2567 65.7457 53.8118 65.6442C54.4517 65.5272 55.1303 65.3415 55.8906 65.0825C56.8551 64.7539 57.8305 64.3508 59.0012 63.8645L59.0684 63.8366L59.0685 63.8365L59.0686 63.8365C60.1676 63.38 61.4496 62.8474 62.7842 62.3927C63.9067 62.0103 65.124 61.6617 66.4324 61.4225C67.5872 61.2114 68.7713 61.093 70 61.093C71.2287 61.093 72.4129 61.2115 73.5676 61.4225C74.876 61.6617 76.0933 62.0102 77.2158 62.3927L75.7636 66.6551L77.2158 62.3927C78.5504 62.8474 79.8323 63.3799 80.9312 63.8364L80.9314 63.8365L80.9314 63.8365L80.9988 63.8645C82.1694 64.3508 83.1448 64.7538 84.1093 65.0824L82.3398 70.2761L84.1093 65.0824C84.8697 65.3415 85.5484 65.5272 86.1884 65.6442C86.7434 65.7457 87.2642 65.7944 87.7778 65.7944C88.2914 65.7944 88.8123 65.7457 89.3673 65.6442C90.0072 65.5272 90.6859 65.3415 91.4461 65.0825C92.4106 64.7539 93.386 64.3508 94.5568 63.8645L94.6237 63.8367C95.7228 63.3801 97.005 62.8474 98.3398 62.3927L99.7814 66.624L98.3398 62.3927C99.4622 62.0103 100.68 61.6617 101.988 61.4225L102.783 65.7715L101.988 61.4225C103.143 61.2114 104.327 61.093 105.556 61.093C106.784 61.093 107.968 61.2114 109.123 61.4225C110.432 61.6617 111.649 62.0103 112.771 62.3927L111.319 66.6551L112.771 62.3927C114.106 62.8474 115.388 63.3799 116.487 63.8365L116.487 63.8365L116.554 63.8645C117.725 64.3508 118.7 64.7538 119.665 65.0824C120.425 65.3415 121.104 65.5272 121.744 65.6442C122.299 65.7457 122.82 65.7944 123.333 65.7944C123.847 65.7944 124.368 65.7457 124.923 65.6442C125.563 65.5272 126.241 65.3415 127.002 65.0825C127.966 64.7539 128.942 64.3508 130.112 63.8645L130.179 63.8368C131.278 63.3802 132.56 62.8475 133.895 62.3927L135.669 67.5988L133.895 62.3927C135.018 62.0103 136.235 61.6617 137.544 61.4225C138.267 61.2902 139.003 61.1943 139.753 61.1412C139.522 64.9841 139.132 68.7566 138.598 72.4519C138.232 72.5491 137.849 72.6666 137.443 72.805C136.478 73.1336 135.503 73.5366 134.332 74.0229L132.222 68.9437L134.332 74.0229L134.265 74.0509L134.264 74.051L134.264 74.0512C133.165 74.5077 131.883 75.0401 130.549 75.4948C129.427 75.8772 128.209 76.2257 126.901 76.4649C125.746 76.676 124.562 76.7944 123.333 76.7944C122.105 76.7944 120.921 76.676 119.766 76.4649C118.457 76.2257 117.24 75.8771 116.117 75.4947C114.783 75.0399 113.501 74.5074 112.402 74.0508L112.335 74.0229C111.164 73.5366 110.188 73.1335 109.224 72.805C108.464 72.5459 107.785 72.3602 107.145 72.2432C106.59 72.1418 106.069 72.093 105.556 72.093C105.042 72.093 104.521 72.1418 103.966 72.2432C103.326 72.3602 102.647 72.5459 101.887 72.805C100.923 73.1336 99.9473 73.5366 98.7766 74.0229L98.7093 74.0509C97.6103 74.5074 96.3283 75.04 94.9936 75.4948C93.8711 75.8772 92.6539 76.2257 91.3454 76.4649C90.1907 76.676 89.0065 76.7944 87.7778 76.7944C87.5117 76.7944 87.2477 76.7888 86.9856 76.778L87.0921 76.2297C87.5826 73.7046 84.876 71.7736 82.648 73.059L80.3476 74.3862C80.1598 74.4961 79.9514 74.5663 79.7353 74.5925C79.5192 74.6187 79.3 74.6003 79.0913 74.5385C78.8826 74.4767 78.6889 74.3728 78.522 74.2332C78.3552 74.0936 78.2189 73.9212 78.1215 73.7269L72.6724 63.0449C71.5591 60.8625 68.4409 60.8625 67.3276 63.0448L61.8785 73.7269C61.7811 73.9212 61.6448 74.0936 61.478 74.2332C61.3112 74.3728 61.1174 74.4767 60.9087 74.5385C60.7 74.6003 60.4808 74.6187 60.2647 74.5925C60.0486 74.5663 59.8402 74.4961 59.6524 74.3862L57.352 73.059C55.124 71.7736 52.4174 73.7046 52.9079 76.2297L53.0144 76.778C52.7523 76.7888 52.4883 76.7944 52.2222 76.7944C50.9936 76.7944 49.8096 76.676 48.6549 76.4649C47.3463 76.2257 46.1288 75.8771 45.0062 75.4947C43.6716 75.04 42.3896 74.5074 41.2907 74.0509L41.2906 74.0508L41.2234 74.0229C40.0527 73.5366 39.0773 73.1335 38.1128 72.805C37.3525 72.5459 36.6739 72.3602 36.034 72.2432C35.4789 72.1418 34.9581 72.093 34.4444 72.093C33.9308 72.093 33.4099 72.1418 32.8549 72.2432C32.215 72.3602 31.5363 72.5459 30.7761 72.805C29.8116 73.1336 28.8362 73.5366 27.6655 74.0229L25.9174 69.8148L27.6654 74.0229L27.5983 74.0508C26.4993 74.5074 25.2172 75.04 23.8824 75.4948C22.76 75.8772 21.5427 76.2257 20.2342 76.4649L19.2466 71.062L20.2342 76.4649C19.0795 76.676 17.8954 76.7944 16.6667 76.7944C15.438 76.7944 14.254 76.676 13.0994 76.4649C11.7907 76.2257 10.5732 75.8771 9.45063 75.4947C8.11601 75.04 6.83408 74.5074 5.73515 74.0509L5.73512 74.0508L5.66788 74.0229C4.49716 73.5366 3.52172 73.1335 2.55725 72.805C2.15109 72.6666 1.76822 72.5491 1.4021 72.4519Z"
		fill="#ED5454" />
	<path fill-rule="evenodd" clip-rule="evenodd"
		d="M5.38879 90.9071C4.21763 86.8635 3.21256 82.6947 2.39859 78.412C2.41788 78.4155 2.43717 78.419 2.45645 78.4225C3.76493 78.6617 4.98221 79.0103 6.10464 79.3927L6.10466 79.3927C7.4394 79.8474 8.72147 80.38 9.8205 80.8366L9.82051 80.8366L9.82054 80.8366L9.88767 80.8645C11.0583 81.3508 12.0337 81.7538 12.9981 82.0824L12.9981 82.0824C13.7585 82.3415 14.4373 82.5272 15.0773 82.6442C15.6323 82.7457 16.1531 82.7944 16.6667 82.7944C17.1803 82.7944 17.7012 82.7457 18.2562 82.6442C18.8961 82.5272 19.5748 82.3415 20.335 82.0825C21.2995 81.7539 22.2749 81.3508 23.4457 80.8645L23.5127 80.8367C24.6118 80.3801 25.8939 79.8474 27.2287 79.3927L28.6902 83.6825L27.2287 79.3927C28.3511 79.0103 29.5684 78.6617 30.8769 78.4225L31.7285 83.0815L30.8769 78.4225C32.0316 78.2114 33.2157 78.093 34.4444 78.093C35.6732 78.093 36.8573 78.2114 38.012 78.4225C39.3205 78.6617 40.5378 79.0103 41.6602 79.3927L39.8865 84.5988L41.6602 79.3927C42.995 79.8474 44.277 80.38 45.376 80.8366L45.3761 80.8366L45.4432 80.8645C46.6139 81.3508 47.5893 81.7538 48.5537 82.0824L46.7799 87.2885L48.5537 82.0824C49.3141 82.3415 49.9928 82.5272 50.6328 82.6442C51.1878 82.7457 51.7087 82.7944 52.2222 82.7944C52.7358 82.7944 53.2567 82.7457 53.8118 82.6442C53.9204 82.6243 54.0302 82.6025 54.1413 82.5786L56.2392 93.3778C56.0906 93.4082 55.9408 93.4373 55.7898 93.4649C54.6351 93.676 53.4509 93.7944 52.2222 93.7944C51.824 93.7944 51.4305 93.7819 51.0411 93.7579L46.7271 89.1362C45.2466 87.55 42.624 88.0115 41.7739 90.0077L41.3238 91.0646L41.2907 91.0509L41.2906 91.0508L41.2234 91.0229C40.0527 90.5366 39.0773 90.1335 38.1128 89.805C37.3525 89.5459 36.6739 89.3602 36.034 89.2432C35.4789 89.1418 34.9581 89.093 34.4444 89.093C33.9308 89.093 33.4099 89.1418 32.8549 89.2432C32.215 89.3602 31.5363 89.5459 30.7761 89.805C29.8116 90.1336 28.8362 90.5366 27.6655 91.0229L25.9174 86.8148L27.6654 91.0229L27.5983 91.0508C26.4993 91.5074 25.2172 92.04 23.8824 92.4948C22.76 92.8772 21.5427 93.2257 20.2342 93.4649L19.2466 88.062L20.2342 93.4649C19.0795 93.676 17.8954 93.7944 16.6667 93.7944C15.438 93.7944 14.254 93.676 13.0994 93.4649C11.7907 93.2257 10.5732 92.8771 9.45063 92.4947C8.11601 92.04 6.83408 91.5074 5.73515 91.0509L5.73512 91.0508L5.66788 91.0229C5.57362 90.9838 5.48062 90.9451 5.38879 90.9071ZM137.601 78.412C136.787 82.6947 135.782 86.8635 134.611 90.9071C134.519 90.9451 134.426 90.9838 134.332 91.0229L132.222 85.9437L134.332 91.0229L134.265 91.0509L134.264 91.051L134.264 91.0512C133.165 91.5077 131.883 92.0401 130.549 92.4948C129.427 92.8772 128.209 93.2257 126.901 93.4649C125.746 93.676 124.562 93.7944 123.333 93.7944C122.105 93.7944 120.921 93.676 119.766 93.4649C118.457 93.2257 117.24 92.8771 116.117 92.4947C114.783 92.0399 113.501 91.5074 112.402 91.0508L112.335 91.0229C111.164 90.5366 110.188 90.1335 109.224 89.805C108.464 89.5459 107.785 89.3602 107.145 89.2432C106.59 89.1418 106.069 89.093 105.556 89.093C105.042 89.093 104.521 89.1418 103.966 89.2432C103.326 89.3602 102.647 89.5459 101.887 89.805C100.923 90.1336 99.9473 90.5366 98.7766 91.0229L98.7093 91.0509L98.6762 91.0646L98.2261 90.0077C97.376 88.0115 94.7534 87.55 93.2729 89.1362L88.9589 93.7579C88.5695 93.7819 88.176 93.7944 87.7778 93.7944C86.5492 93.7944 85.3651 93.676 84.2105 93.4649C84.0594 93.4373 83.9095 93.4082 83.7608 93.3778L85.8587 82.5786C85.9699 82.6025 86.0797 82.6243 86.1884 82.6442C86.7434 82.7457 87.2642 82.7944 87.7778 82.7944C88.2914 82.7944 88.8123 82.7457 89.3673 82.6442C90.0072 82.5272 90.6859 82.3415 91.4461 82.0825C92.4106 81.7539 93.386 81.3508 94.5568 80.8645L94.6237 80.8367C95.7228 80.3801 97.005 79.8474 98.3398 79.3927L99.7814 83.624L98.3398 79.3927C99.4622 79.0103 100.68 78.6617 101.988 78.4225L102.783 82.7715L101.988 78.4225C103.143 78.2114 104.327 78.093 105.556 78.093C106.784 78.093 107.968 78.2114 109.123 78.4225C110.432 78.6617 111.649 79.0103 112.771 79.3927L111.319 83.6551L112.771 79.3927C114.106 79.8474 115.388 80.3799 116.487 80.8365L116.487 80.8365L116.554 80.8645C117.725 81.3508 118.7 81.7538 119.665 82.0824C120.425 82.3415 121.104 82.5272 121.744 82.6442C122.299 82.7457 122.82 82.7944 123.333 82.7944C123.847 82.7944 124.368 82.7457 124.923 82.6442C125.563 82.5272 126.241 82.3415 127.002 82.0825C127.966 81.7539 128.942 81.3508 130.112 80.8645L130.179 80.8368C131.278 80.3802 132.56 79.8475 133.895 79.3927L135.669 84.5988L133.895 79.3927C135.018 79.0103 136.235 78.6617 137.544 78.4225C137.563 78.419 137.582 78.4155 137.601 78.412Z"
		fill="#ED5454" />
	<path
		d="M74.7 102.1V99C74.7 96.9 72.6 95.3 70 95.3C67.4 95.3 65.3 96.9 65.3 99V102.1C64.1 102.5 63.1 103.6 63.1 105V111.9C63.1 113.6 64.5 114.9 66.1 114.9H73.9C75.6 114.9 76.9 113.6 76.9 111.9V105C76.9 103.6 76 102.5 74.7 102.1ZM70 97.3C71.5 97.3 72.7 98.1 72.7 99V101.9H67.2V99C67.3 98.1 68.5 97.3 70 97.3ZM70.7 109.2C70.7 111.1 70.6 111.4 70 111.4C69.4 111.4 69.3 111.1 69.3 109.2C68.9 109 68.7 108.6 68.7 108.2C68.7 107.5 69.3 107 70 107C70.7 107 71.3 107.5 71.3 108.2C71.3 108.6 71.1 109 70.7 109.2Z"
		fill="#ED5454" />
	<path
		d="M36.3086 23.3242C36.3086 22.9238 36.4502 22.582 36.7334 22.2988C37.0264 22.0059 37.373 21.8594 37.7734 21.8594C38.1738 21.8594 38.5156 22.0059 38.7988 22.2988C39.0918 22.582 39.2383 22.9238 39.2383 23.3242V35.043C39.2383 35.4434 39.0918 35.79 38.7988 36.083C38.5156 36.3662 38.1738 36.5078 37.7734 36.5078C37.373 36.5078 37.0312 36.3613 36.748 36.0684C36.6113 35.9414 36.5088 35.8047 36.4404 35.6582C35.542 36.2246 34.5215 36.5078 33.3789 36.5078C31.7578 36.5078 30.376 35.9365 29.2334 34.7939C28.0908 33.6514 27.5195 32.2695 27.5195 30.6484V23.3242C27.5195 22.9238 27.6611 22.582 27.9443 22.2988C28.2373 22.0059 28.584 21.8594 28.9844 21.8594C29.3848 21.8594 29.7266 22.0059 30.0098 22.2988C30.3027 22.582 30.4492 22.9238 30.4492 23.3242V30.6484C30.4492 31.459 30.7324 32.1523 31.2988 32.7285C31.875 33.2949 32.5684 33.5781 33.3789 33.5781C34.1895 33.5781 34.8779 33.2949 35.4443 32.7285C36.0205 32.1523 36.3086 31.459 36.3086 30.6484V23.3242Z"
		fill="#ED5454" />
	<path
		d="M45.0977 27.7188V30.6484C45.0977 31.459 45.3809 32.1523 45.9473 32.7285C46.5234 33.2949 47.2168 33.5781 48.0273 33.5781C48.8379 33.5781 49.5264 33.2949 50.0928 32.7285C50.6689 32.1523 50.957 31.459 50.957 30.6484V27.7188C50.957 26.9082 50.6689 26.2197 50.0928 25.6533C49.5264 25.0771 48.8379 24.7891 48.0273 24.7891C47.2168 24.7891 46.5234 25.0771 45.9473 25.6533C45.3809 26.2197 45.0977 26.9082 45.0977 27.7188ZM42.168 17.4648C42.168 17.0645 42.3096 16.7227 42.5928 16.4395C42.8857 16.1465 43.2324 16 43.6328 16C44.0332 16 44.375 16.1465 44.6582 16.4395C44.9512 16.7227 45.0977 17.0645 45.0977 17.4648V22.6211C45.9668 22.1133 46.9434 21.8594 48.0273 21.8594C49.6484 21.8594 51.0303 22.4307 52.1729 23.5732C53.3154 24.7158 53.8867 26.0977 53.8867 27.7188V30.6484C53.8867 32.2695 53.3154 33.6514 52.1729 34.7939C51.0303 35.9365 49.6484 36.5078 48.0273 36.5078C46.8848 36.5078 45.8643 36.2246 44.9658 35.6582C44.8975 35.8047 44.7998 35.9414 44.6729 36.0684C44.3799 36.3613 44.0332 36.5078 43.6328 36.5078C43.2324 36.5078 42.8857 36.3662 42.5928 36.083C42.3096 35.79 42.168 35.4434 42.168 35.043V17.4648Z"
		fill="#ED5454" />
	<path
		d="M59.7461 30.6484C59.7461 31.459 60.0293 32.1523 60.5957 32.7285C61.1719 33.2949 62.1094 33.5781 63.4082 33.5781C64.5117 33.5781 65.3516 33.29 65.9277 32.7139C65.9375 32.7041 65.9473 32.6943 65.957 32.6846C66.2402 32.4014 66.582 32.2598 66.9824 32.2598C67.3828 32.2598 67.7246 32.4062 68.0078 32.6992C68.3008 32.9824 68.4473 33.3242 68.4473 33.7246C68.4473 34.125 68.3057 34.4668 68.0225 34.75C68.0029 34.7695 67.9883 34.7793 67.9785 34.7793L67.9932 34.7939C66.8506 35.9365 65.3223 36.5078 63.4082 36.5078C61.2988 36.5078 59.6729 35.9365 58.5303 34.7939C57.3877 33.6514 56.8164 32.2695 56.8164 30.6484V27.7188C56.8164 26.0977 57.3877 24.7158 58.5303 23.5732C59.6729 22.4307 61.2988 21.8594 63.4082 21.8594C65.3223 21.8594 66.8506 22.4307 67.9932 23.5732L67.9785 23.5879C67.9883 23.5879 68.0029 23.5928 68.0225 23.6025C68.3057 23.8955 68.4473 24.2422 68.4473 24.6426C68.4473 25.043 68.3008 25.3896 68.0078 25.6826C67.7246 25.9658 67.3828 26.1074 66.9824 26.1074C66.582 26.1074 66.2402 25.9609 65.957 25.668C65.9473 25.668 65.9375 25.6631 65.9277 25.6533C65.3516 25.0771 64.5117 24.7891 63.4082 24.7891C62.1094 24.7891 61.1719 25.0771 60.5957 25.6533C60.0293 26.2197 59.7461 26.9082 59.7461 27.7188V30.6484Z"
		fill="#ED5454" />
	<path
		d="M74.3945 30.6484C74.3945 31.459 74.6777 32.1523 75.2441 32.7285C75.8203 33.2949 76.7578 33.5781 78.0566 33.5781C79.1602 33.5781 80 33.29 80.5762 32.7139C80.5859 32.7041 80.5957 32.6943 80.6055 32.6846C80.8887 32.4014 81.2305 32.2598 81.6309 32.2598C82.0312 32.2598 82.373 32.4062 82.6562 32.6992C82.9492 32.9824 83.0957 33.3242 83.0957 33.7246C83.0957 34.125 82.9541 34.4668 82.6709 34.75C82.6514 34.7695 82.6367 34.7793 82.627 34.7793L82.6416 34.7939C81.499 35.9365 79.9707 36.5078 78.0566 36.5078C75.9473 36.5078 74.3213 35.9365 73.1787 34.7939C72.0361 33.6514 71.4648 32.2695 71.4648 30.6484V27.7188C71.4648 26.0977 72.0361 24.7158 73.1787 23.5732C74.3213 22.4307 75.9473 21.8594 78.0566 21.8594C79.9707 21.8594 81.499 22.4307 82.6416 23.5732L82.627 23.5879C82.6367 23.5879 82.6514 23.5928 82.6709 23.6025C82.9541 23.8955 83.0957 24.2422 83.0957 24.6426C83.0957 25.043 82.9492 25.3896 82.6562 25.6826C82.373 25.9658 82.0312 26.1074 81.6309 26.1074C81.2305 26.1074 80.8887 25.9609 80.6055 25.668C80.5957 25.668 80.5859 25.6631 80.5762 25.6533C80 25.0771 79.1602 24.7891 78.0566 24.7891C76.7578 24.7891 75.8203 25.0771 75.2441 25.6533C74.6777 26.2197 74.3945 26.9082 74.3945 27.7188V30.6484Z"
		fill="#ED5454" />
	<path
		d="M94.9023 33.5781H96.3672C96.7676 33.5781 97.1094 33.7246 97.3926 34.0176C97.6855 34.3008 97.832 34.6426 97.832 35.043C97.832 35.4434 97.6855 35.79 97.3926 36.083C97.1094 36.3662 96.7676 36.5078 96.3672 36.5078H94.9023C93.2812 36.5078 91.8994 35.9365 90.7568 34.7939C89.6143 33.6514 89.043 32.2695 89.043 30.6484V24.7891H87.5781C87.1777 24.7891 86.8311 24.6475 86.5381 24.3643C86.2549 24.0713 86.1133 23.7246 86.1133 23.3242C86.1133 22.9238 86.2549 22.582 86.5381 22.2988C86.8311 22.0059 87.1777 21.8594 87.5781 21.8594H89.043V17.4648C89.043 17.0645 89.1846 16.7227 89.4678 16.4395C89.7607 16.1465 90.1074 16 90.5078 16C90.9082 16 91.25 16.1465 91.5332 16.4395C91.8262 16.7227 91.9727 17.0645 91.9727 17.4648V21.8594H96.3672C96.7676 21.8594 97.1094 22.0059 97.3926 22.2988C97.6855 22.582 97.832 22.9238 97.832 23.3242C97.832 23.7246 97.6855 24.0713 97.3926 24.3643C97.1094 24.6475 96.7676 24.7891 96.3672 24.7891H91.9727V30.6484C91.9727 31.459 92.2559 32.1523 92.8223 32.7285C93.3984 33.2949 94.0918 33.5781 94.9023 33.5781Z"
		fill="#ED5454" />
	<path
		d="M109.551 16H111.016C111.416 16 111.758 16.1465 112.041 16.4395C112.334 16.7227 112.48 17.0645 112.48 17.4648C112.48 17.8652 112.334 18.2119 112.041 18.5049C111.758 18.7881 111.416 18.9297 111.016 18.9297H109.551C108.74 18.9297 108.047 19.2178 107.471 19.7939C106.904 20.3604 106.621 21.0488 106.621 21.8594H111.016C111.416 21.8594 111.758 22.0059 112.041 22.2988C112.334 22.582 112.48 22.9238 112.48 23.3242C112.48 23.7246 112.334 24.0713 112.041 24.3643C111.758 24.6475 111.416 24.7891 111.016 24.7891H106.621V35.043C106.621 35.4434 106.475 35.79 106.182 36.083C105.898 36.3662 105.557 36.5078 105.156 36.5078C104.756 36.5078 104.409 36.3662 104.116 36.083C103.833 35.79 103.691 35.4434 103.691 35.043V24.7891H102.227C101.826 24.7891 101.479 24.6475 101.187 24.3643C100.903 24.0713 100.762 23.7246 100.762 23.3242C100.762 22.9238 100.903 22.582 101.187 22.2988C101.479 22.0059 101.826 21.8594 102.227 21.8594H103.691C103.691 20.2383 104.263 18.8564 105.405 17.7139C106.548 16.5713 107.93 16 109.551 16Z"
		fill="#ED5454" />
</svg>