<svg id="Layer_1" data-name="Layer 1" xmlns="http://www.w3.org/2000/svg" xmlns:xlink="http://www.w3.org/1999/xlink" viewBox="0 0 146.01 162.94"><defs><style>.cls-1{fill:none;stroke:#ed5454;stroke-miterlimit:10;stroke-width:3px;}.cls-2{clip-path:url(#clip-path);}.cls-3,.cls-5{fill:#ed5454;}.cls-4{fill:#fff;}.cls-5{font-size:30px;font-family:CQMono, CQ Mono;}</style><clipPath id="clip-path" transform="translate(-27.58 -18.33)"><path class="cls-1" d="M33,29.83v41.1c0,62.91,42.41,108.85,66.91,108.85S168.2,133.83,168.2,70.93V29.83c0-5.18-54-10-69.09-10S33,23.7,33,29.83Z"/></clipPath></defs><title>logo</title><g class="cls-2"><path class="cls-3" d="M80.79,77.83h-.07a26.7,26.7,0,0,1-12-3.06C66.52,73.76,65,73,62.92,73s-4.1.82-6.58,1.86c-3.12,1.31-7,2.94-12,2.94a19.54,19.54,0,0,1-10.46-3A10.93,10.93,0,0,0,27.58,73V63a20.58,20.58,0,0,1,11.1,3.08,9.87,9.87,0,0,0,5.62,1.71c3,0,5.41-1,8.17-2.16C55.42,64.44,58.76,63,62.92,63a22.34,22.34,0,0,1,10,2.66c2.47,1.14,4.6,2.13,7.85,2.14,2.47,0,4.05-.78,6.44-2a27.21,27.21,0,0,1,13.34-3.49,20.68,20.68,0,0,1,11.16,3.11,10,10,0,0,0,5.66,1.74c3,0,5.41-1,8.17-2.16,2.95-1.24,6.29-2.64,10.45-2.64a22.35,22.35,0,0,1,10,2.66c2.47,1.14,4.59,2.13,7.85,2.14h0c2.45,0,4-.78,6.41-2a27.28,27.28,0,0,1,13.35-3.49v10c-4,0-6.26,1.13-8.9,2.44-2.84,1.41-6.06,3-10.86,3h-.08a26.71,26.71,0,0,1-12-3.06c-2.17-1-3.75-1.73-5.78-1.73s-4.1.82-6.58,1.86c-3.12,1.31-7,2.94-12,2.94a19.62,19.62,0,0,1-10.5-3,11,11,0,0,0-6.3-1.86c-4,0-6.27,1.13-8.9,2.44C88.81,76.23,85.6,77.83,80.79,77.83Z" transform="translate(-27.58 -18.33)"/><path class="cls-3" d="M80.79,92.9h-.07a26.7,26.7,0,0,1-12-3.06c-2.18-1-3.75-1.73-5.78-1.73s-4.1.82-6.58,1.86c-3.12,1.31-7,2.94-12,2.94a19.54,19.54,0,0,1-10.46-3,10.93,10.93,0,0,0-6.26-1.84v-10a20.58,20.58,0,0,1,11.1,3.08A9.87,9.87,0,0,0,44.3,82.9c3,0,5.41-1,8.17-2.16,2.95-1.24,6.29-2.64,10.45-2.64a22.35,22.35,0,0,1,10,2.66c2.47,1.14,4.6,2.13,7.85,2.14,2.47,0,4.05-.78,6.44-2a27.22,27.22,0,0,1,13.34-3.49,20.68,20.68,0,0,1,11.16,3.11,10,10,0,0,0,5.66,1.74c3,0,5.41-1,8.17-2.16,2.95-1.24,6.29-2.64,10.45-2.64a22.35,22.35,0,0,1,10,2.66c2.47,1.14,4.6,2.13,7.85,2.14h0c2.45,0,4-.78,6.41-2a27.28,27.28,0,0,1,13.35-3.49v10c-4,0-6.26,1.13-8.9,2.44-2.86,1.42-6.1,3-10.94,3a26.69,26.69,0,0,1-12-3.06c-2.18-1-3.75-1.73-5.78-1.73s-4.1.82-6.58,1.86c-3.12,1.31-7,2.94-12,2.94a19.63,19.63,0,0,1-10.5-3,11,11,0,0,0-6.3-1.86c-4,0-6.27,1.13-8.9,2.44C88.81,91.3,85.6,92.9,80.79,92.9Z" transform="translate(-27.58 -18.33)"/><path class="cls-3" d="M80.79,108h-.08a26.7,26.7,0,0,1-12-3.06c-2.18-1-3.75-1.73-5.78-1.73s-4.1.82-6.58,1.86c-3.12,1.31-7,2.94-12,2.94a19.54,19.54,0,0,1-10.46-3,10.93,10.93,0,0,0-6.26-1.84v-10a20.58,20.58,0,0,1,11.1,3.08A9.87,9.87,0,0,0,44.3,98c3,0,5.41-1,8.17-2.16,2.95-1.24,6.29-2.64,10.45-2.64a22.35,22.35,0,0,1,10,2.66C75.36,97,77.49,98,80.75,98c2.44,0,4.05-.78,6.44-2a27.22,27.22,0,0,1,13.34-3.49,20.68,20.68,0,0,1,11.16,3.11,10,10,0,0,0,5.66,1.74c3,0,5.41-1,8.17-2.16,2.95-1.24,6.29-2.64,10.45-2.64a22.35,22.35,0,0,1,10,2.66c2.47,1.14,4.6,2.13,7.85,2.14h0c2.46,0,4-.78,6.41-2a27.28,27.28,0,0,1,13.35-3.49v10c-4,0-6.26,1.13-8.9,2.44-2.84,1.41-6.06,3-10.86,3h-.08a26.71,26.71,0,0,1-12-3.06c-2.17-1-3.75-1.73-5.78-1.73s-4.1.82-6.58,1.86c-3.12,1.31-7,2.94-12,2.94a19.63,19.63,0,0,1-10.5-3,11,11,0,0,0-6.3-1.86c-4,0-6.27,1.13-8.9,2.44C88.81,106.37,85.6,108,80.79,108Z" transform="translate(-27.58 -18.33)"/><path class="cls-4" d="M100.57,156.51,80.19,161s-3.34,0-2.58-2.15c.39-1.11,2.59-7.11,2.59-7.11L61.69,137.62s-2.22-1.48,0-3l4.44-3-3-10.37s-1.48-3.7,2.22-3S75,120.11,75,120.11l2.56-4.61a1.61,1.61,0,0,1,2.61-.23c1.58,1.4,4.84,4.38,4.84,4.38s-2.86-13.64-3-14.7A1.88,1.88,0,0,1,84.58,103l7.36,2.69s6.37-10.89,7.14-12.24a1.91,1.91,0,0,1,3.4,0c.92,1.41,7,12.24,7,12.24s4.77-2.39,6-3a2,2,0,0,1,2.89,1.88c-.21,1.7-2.07,15.08-2.07,15.08s3.54-3.31,4.88-4.38,3-1.54,3.61.23,1.34,4.93,1.34,4.93,6.93-1.65,9.05-2.07a2.5,2.5,0,0,1,3.11,3c-.42,1.63-3,10.37-3,10.37s3.18,2.18,4.53,3,.57,2-.57,3-16.89,14.07-16.89,14.07,1.16,5.2,1.54,7.11-1.59,2.47-3.11,2.15S100.57,156.51,100.57,156.51Z" transform="translate(-27.58 -18.33)"/><path class="cls-3" d="M121.55,162.53a5.55,5.55,0,0,1-1.13-.11c-1.42-.3-17.29-3.81-19.85-4.38l-20.06,4.37a1.48,1.48,0,0,1-.35,0c-.53,0-2.66-.09-3.67-1.49a2.83,2.83,0,0,1-.3-2.65c.29-.82,1.57-4.32,2.22-6.09l-17.63-13.4a3.56,3.56,0,0,1-1.58-2.73,3.18,3.18,0,0,1,1.66-2.67l3.53-2.36-2.64-9.25c-.21-.57-.86-2.61.31-4,.53-.64,1.59-1.31,3.63-.9,2.71.54,6.68,1.24,8.55,1.56l2-3.68a3.32,3.32,0,0,1,2.25-1.54,3.23,3.23,0,0,1,2.66.91l1.44,1.28c-.86-4.12-2-9.58-2.08-10.29a3.39,3.39,0,0,1,1.27-3,3.31,3.31,0,0,1,3.28-.51l6.18,2.26,6.51-11.15A3.45,3.45,0,0,1,100.67,91a3.58,3.58,0,0,1,3.07,1.72c.75,1.16,4.71,8.17,6.35,11.07,1.5-.75,3.88-2,4.67-2.37a3.59,3.59,0,0,1,3.68.25,3.26,3.26,0,0,1,1.39,3.14c-.14,1.09-.94,6.88-1.5,11,.73-.65,1.43-1.26,1.89-1.63a4.42,4.42,0,0,1,3.91-1.16,3.05,3.05,0,0,1,2,2.06c.38,1.05.77,2.54,1,3.63,2.16-.51,6.11-1.43,7.65-1.74a4.14,4.14,0,0,1,3.91,1.17,3.87,3.87,0,0,1,.95,3.65c-.34,1.31-2,7-2.74,9.37,1,.7,2.68,1.8,3.53,2.29A2.69,2.69,0,0,1,142,135.5a4,4,0,0,1-1.82,3.29c-1,.79-13.11,10.92-16.18,13.48.35,1.58,1.06,4.81,1.34,6.25a3.15,3.15,0,0,1-.82,3A4.13,4.13,0,0,1,121.55,162.53ZM80.19,161h0ZM100.57,155a1.51,1.51,0,0,1,.32,0c.19,0,18.64,4.13,20.14,4.44a1.7,1.7,0,0,0,1.35-.16h0a.59.59,0,0,0,0-.23c-.37-1.87-1.52-7-1.53-7.08a1.5,1.5,0,0,1,.5-1.48c.64-.54,15.78-13.17,16.91-14.09a3.45,3.45,0,0,0,.59-.59c-1.53-.92-4.33-2.84-4.46-2.93a1.5,1.5,0,0,1-.59-1.67c0-.09,2.61-8.73,3-10.32a.88.88,0,0,0-.23-.83,1.18,1.18,0,0,0-1.14-.28c-2.07.41-8.93,2-9,2.06a1.5,1.5,0,0,1-1.81-1.13s-.69-3.09-1.29-4.75a.68.68,0,0,0-.12-.23,4.43,4.43,0,0,0-1.15.67c-1.28,1-4.75,4.26-4.79,4.29a1.5,1.5,0,0,1-2.51-1.3c0-.13,1.86-13.39,2.07-15.06a.26.26,0,0,0-.12-.3.63.63,0,0,0-.57-.07c-1.2.64-5.81,2.95-6,3a1.5,1.5,0,0,1-2-.61c-2.1-3.73-6.25-11.07-7-12.16-.15-.22-.3-.35-.48-.35a.49.49,0,0,0-.36.29c-.78,1.34-7.15,12.24-7.15,12.24a1.5,1.5,0,0,1-1.81.65l-7.35-2.69c-.21-.08-.3,0-.35,0a.49.49,0,0,0-.2.31c.1.72,1.84,9.12,3,14.58A1.5,1.5,0,0,1,84,120.76s-3.25-3-4.82-4.36a.8.8,0,0,0-.29-.19s0,.06-.05.1l-2.52,4.53a1.5,1.5,0,0,1-1.56.75c-.06,0-6-1-9.68-1.76a2.7,2.7,0,0,0-.72-.06,2.89,2.89,0,0,0,.19,1l0,.14,3,10.37a1.5,1.5,0,0,1-.61,1.66l-4.44,3a1.76,1.76,0,0,0-.26.21,1.48,1.48,0,0,0,.28.27L81.11,150.5a1.5,1.5,0,0,1,.5,1.71s-2.15,5.85-2.57,7a3.39,3.39,0,0,0,1,.19L100.25,155A1.53,1.53,0,0,1,100.57,155Z" transform="translate(-27.58 -18.33)"/><path class="cls-3" d="M104.49,144.16H96.67a3,3,0,0,1-3-3v-6.91a3,3,0,0,1,3-3h7.82a3,3,0,0,1,3,3v6.91A3,3,0,0,1,104.49,144.16ZM100.58,135a1.44,1.44,0,0,0-1.32,1.53,1.6,1.6,0,0,0,.63,1.3c0,2.41.14,2.79.69,2.79s.67-.43.67-2.78a1.59,1.59,0,0,0,.65-1.32A1.44,1.44,0,0,0,100.58,135Z" transform="translate(-27.58 -18.33)"/><path class="cls-3" d="M97.84,131.95h-2v-3.62c0-2.08,2.08-3.72,4.75-3.72s4.75,1.63,4.75,3.72v3.59h-2v-3.59c0-.92-1.28-1.72-2.75-1.72s-2.75.8-2.75,1.72Z" transform="translate(-27.58 -18.33)"/><text class="cls-5" transform="translate(29.06 35.85)">ubcctf</text></g><path class="cls-1" d="M33,29.83v41.1c0,62.91,42.41,108.85,66.91,108.85S168.2,133.83,168.2,70.93V29.83c0-5.18-54-10-69.09-10S33,23.7,33,29.83Z" transform="translate(-27.58 -18.33)"/></svg>