<?xml version="1.0" encoding="utf-8"?>
<!-- Generator: Adobe Illustrator 21.1.0, SVG Export Plug-In . SVG Version: 6.00 Build 0)  -->
<svg version="1.1" id="Layer_2" xmlns="http://www.w3.org/2000/svg" xmlns:xlink="http://www.w3.org/1999/xlink" x="0px" y="0px"
	 viewBox="0 0 142 167" style="enable-background:new 0 0 142 167;" xml:space="preserve">
<style type="text/css">
	.st0{clip-path:url(#SVGID_2_);}
	.st1{fill:#ED5454;}
</style>
<g>
	<defs>
		<path id="SVGID_1_" d="M3.4,14c0,0,0,27.5,0,41.1C3.4,118,45.8,164,70.3,164s68.3-45.9,68.3-108.9c0-15.6,0-35.9,0-41.1
			S84.6,4,69.5,4S3.4,7.9,3.4,14z"/>
	</defs>
	<clipPath id="SVGID_2_">
		<use xlink:href="#SVGID_1_"  style="overflow:visible;"/>
	</clipPath>
	<g class="st0">
		<path class="st1" d="M130.4,49c-2.3,1.2-3.9,1.9-6.2,1.9c0,0,0,0,0,0c-3.1,0-5.1-0.9-7.6-2.1c-2.7-1.3-5.8-2.7-10.2-2.7
			c-4.3,0-7.7,1.4-10.6,2.7c-2.7,1.1-5,2.1-8,2.1c-2.4,0-3.5-0.6-5.4-1.7c-2.4-1.3-5.7-3.2-11.4-3.2c-6.4,0-10.4,2-13.6,3.5
			c-2.3,1.2-3.8,1.9-6.2,1.9c0,0,0,0,0,0c-3.1,0-5.1-0.9-7.6-2.1c-2.7-1.3-5.8-2.7-10.2-2.7c-4.3,0-7.7,1.4-10.6,2.7
			c-2.7,1.1-5,2.1-8,2.1c-2.4,0-3.5-0.6-5.4-1.7c-2.4-1.3-5.7-3.1-11.3-3.1v11c2.8,0,4.1,0.7,6,1.8c2.4,1.3,5.5,3,10.7,3
			c5.1,0,9.1-1.6,12.2-3c2.4-1,4.3-1.8,6.4-1.8c1.9,0,3.5,0.7,5.6,1.7c3,1.4,6.7,3.1,12.2,3.1c0,0,0.1,0,0.1,0
			c4.9,0,8.3-1.7,11.1-3.1c2.7-1.3,4.8-2.4,8.7-2.4c2.8,0,4.1,0.7,6.1,1.8c2.5,1.4,5.5,3,10.7,3c5.1,0,9.1-1.6,12.2-3
			c2.4-1,4.3-1.8,6.4-1.8c1.9,0,3.5,0.7,5.6,1.7c3,1.4,6.7,3.1,12.2,3.1c0,0,0.1,0,0.1,0c4.9,0,8.3-1.7,11.1-3.1
			c2.7-1.3,4.8-2.4,8.7-2.4v-11C137.5,45.5,133.5,47.4,130.4,49z"/>
		<path class="st1" d="M124.2,67.9C124.2,67.9,124.1,67.9,124.2,67.9c-3.2,0-5.2-0.9-7.7-2.1c-2.7-1.3-5.8-2.7-10.2-2.7
			c-4.3,0-7.7,1.4-10.6,2.7c-2.7,1.1-5,2.1-8,2.1c-2.4,0-3.5-0.6-5.4-1.7c-1.9-1-4.3-2.4-7.9-2.9c0,0,0-0.1-0.1-0.1
			c-0.8-1.2-2-1.8-3.3-1.8c-1.2,0-2.3,0.7-3,1.8c-4.8,0.5-8,2.1-10.7,3.4c-2.3,1.2-3.8,1.9-6.2,1.9c0,0,0,0,0,0
			c-3.1,0-5.1-0.9-7.6-2.1c-2.7-1.3-5.8-2.7-10.2-2.7c-4.3,0-7.7,1.4-10.6,2.7c-2.7,1.1-5,2.1-8,2.1c-2.4,0-3.5-0.6-5.4-1.7
			c-2.4-1.3-5.7-3.1-11.3-3.1v11c2.8,0,4.1,0.7,6,1.8c2.4,1.3,5.5,3,10.7,3c5.1,0,9.1-1.6,12.2-3c2.4-1,4.3-1.8,6.4-1.8
			c1.9,0,3.5,0.7,5.6,1.7c2.7,1.2,5.9,2.7,10.6,3c0.3,1.6,0.8,3.9,1.2,6c-2.9-0.1-4.8-1-7.2-2.1c-2.7-1.3-5.8-2.7-10.2-2.7
			c-4.3,0-7.7,1.4-10.6,2.7c-2.7,1.1-5,2.1-8,2.1c-2.4,0-3.5-0.6-5.4-1.7c-2.4-1.3-5.7-3.1-11.3-3.1v11c2.8,0,4.1,0.7,6,1.8
			c2.4,1.3,5.5,3,10.7,3c5.1,0,9.1-1.6,12.2-3c0.3-0.1,0.5-0.2,0.8-0.3c0,0.9,0.3,1.8,0.4,2.1l3,10.4l-4,2.7c-1.5,1-1.8,2.1-1.8,2.8
			c0,1.7,1.6,2.8,1.7,2.9L46.6,129c-0.7,1.9-2.2,5.9-2.5,6.9c-0.4,1-0.2,2,0.3,2.8c1.1,1.5,3.4,1.6,3.9,1.6c0.1,0,0.2,0,0.4,0
			l22.2-4.8c2.7,0.6,20.4,4.5,22,4.9c0.4,0.1,0.8,0.1,1.2,0.1c1.1,0,2.3-0.3,3.1-1.1c0.8-0.8,1.1-1.9,0.9-3.1
			c-0.3-1.6-1.1-5.3-1.5-7c3.3-2.7,16.9-14.1,18-15c1-0.8,2.1-2,2-3.5c0-0.5-0.3-1.5-1.5-2.2c-1-0.6-2.9-1.8-4-2.6
			c0.8-2.6,2.7-9,3.1-10.5c0.1-0.5,0.2-0.9,0.1-1.4c2.6,1.1,5.7,2.1,9.9,2.1c4.9,0,8.4-1.7,11.2-3.1c2.7-1.3,4.8-2.4,8.7-2.4v-11
			c-6.4,0-10.4,2-13.6,3.5c-2.3,1.2-3.9,1.9-6.2,1.9c0,0,0,0,0,0c-3.1,0-5.1-0.9-7.6-2.1c-2.7-1.3-5.8-2.7-10.2-2.7
			c-4.3,0-7.7,1.4-10.6,2.7c-1.6,0.7-3.1,1.3-4.7,1.7c0.3-2.2,0.6-4.4,0.8-5.9c3.2-0.6,5.9-1.7,8.1-2.6c2.4-1,4.3-1.8,6.4-1.8
			c1.9,0,3.5,0.7,5.6,1.7c3,1.4,6.7,3.1,12.2,3.1c0,0,0.1,0,0.1,0c4.9,0,8.3-1.7,11.1-3.1c2.7-1.3,4.8-2.4,8.7-2.4v-11
			c-6.4,0-10.4,2-13.6,3.5C128,67.2,126.5,67.9,124.2,67.9z M87.6,94.3c0.6,0.3,1.3,0.2,1.7-0.2c0,0,3.9-3.6,5.3-4.8
			c0.9-0.7,1.4-0.7,1.5-0.7c0,0,0.1,0.1,0.2,0.3c0.7,1.8,1.4,5.2,1.4,5.3c0.1,0.4,0.3,0.7,0.7,0.9c0.3,0.2,0.8,0.3,1.1,0.2
			c0.1,0,7.7-1.8,10-2.3c0.6-0.1,1.1,0,1.4,0.4c0.3,0.3,0.4,0.7,0.3,1.1c-0.5,1.8-3.3,11.3-3.4,11.4c-0.2,0.6,0,1.3,0.6,1.7
			c0.1,0.1,3.5,2.4,5.1,3.3c-0.1,0.2-0.3,0.5-0.8,0.8c-1.2,1-18,15-18.7,15.6c-0.4,0.4-0.6,0.9-0.5,1.5c0,0.1,1.3,5.8,1.7,7.8
			c0.1,0.3,0,0.4,0,0.4c-0.2,0.2-0.9,0.4-1.6,0.2c-1.7-0.3-22.1-4.9-22.3-4.9c-0.1,0-0.2,0-0.3,0c-0.1,0-0.2,0-0.3,0l-22.4,4.9
			c-0.5,0-1.1-0.2-1.3-0.3c0,0,0-0.1,0-0.1c0.4-1.2,2.8-7.8,2.9-7.8c0.2-0.6,0-1.3-0.5-1.7l-20.6-15.6c-0.2-0.1-0.4-0.4-0.4-0.4
			c0,0,0.1-0.2,0.4-0.4l4.9-3.3c0.5-0.4,0.8-1,0.6-1.7l-3.3-11.5c0,0,0-0.1,0-0.1c-0.2-0.4-0.3-1.1-0.2-1.3c0,0,0.3-0.1,1,0
			c4.1,0.8,10.6,1.9,10.7,1.9c0.6,0.1,1.3-0.2,1.6-0.8l2.8-5c0,0,0.2-0.2,0.2-0.2c0,0,0.2,0.1,0.4,0.3c1.7,1.5,5.3,4.8,5.3,4.8
			c0.5,0.4,1.2,0.5,1.8,0.2c0.6-0.3,0.9-1,0.7-1.6c-1.3-6-3.2-15.3-3.3-16.2c0-0.1,0.1-0.3,0.3-0.5c0.2-0.1,0.3-0.1,0.6-0.1
			c1.7,0.6,8.1,3,8.1,3c0.7,0.3,1.4,0,1.8-0.7c0,0,7-12.1,7.9-13.6c0.1-0.3,0.3-0.4,0.5-0.4c0.2,0,0.5,0.2,0.7,0.5
			c0.8,1.2,5.4,9.3,7.7,13.5c0.4,0.7,1.3,1,2,0.6c0.2-0.1,5.3-2.7,6.6-3.4c0.2-0.1,0.6-0.1,0.8,0.1c0.2,0.1,0.2,0.3,0.2,0.5
			c-0.2,1.8-2.3,16.5-2.3,16.7C86.7,93.4,87,94,87.6,94.3z"/>
		<path class="st1" d="M75.7,104.1v-3.1c0-2.1-2.1-3.7-4.7-3.7s-4.7,1.6-4.7,3.7v3.1c-1.2,0.4-2.2,1.5-2.2,2.9v6.9c0,1.7,1.4,3,3,3
			h7.8c1.7,0,3-1.3,3-3V107C77.9,105.6,77,104.5,75.7,104.1z M71,99.3c1.5,0,2.7,0.8,2.7,1.7v2.9h-5.5v-2.9
			C68.3,100.1,69.5,99.3,71,99.3z M71.7,111.2c0,1.9-0.1,2.2-0.7,2.2c-0.6,0-0.7-0.3-0.7-2.2c-0.4-0.2-0.6-0.6-0.6-1
			c0-0.7,0.6-1.2,1.3-1.2c0.7,0,1.3,0.5,1.3,1.2C72.3,110.6,72.1,111,71.7,111.2z"/>
	</g>
	<g class="st0">
		<path class="st1" d="M35.8,25.2c0-0.4,0.1-0.7,0.4-1c0.3-0.3,0.6-0.4,1-0.4s0.7,0.1,1,0.4c0.3,0.3,0.4,0.6,0.4,1v11.7
			c0,0.4-0.1,0.7-0.4,1c-0.3,0.3-0.6,0.4-1,0.4s-0.7-0.1-1-0.4c-0.1-0.1-0.2-0.3-0.3-0.4c-0.9,0.6-1.9,0.8-3.1,0.8
			c-1.6,0-3-0.6-4.1-1.7s-1.7-2.5-1.7-4.1v-7.3c0-0.4,0.1-0.7,0.4-1c0.3-0.3,0.6-0.4,1-0.4s0.7,0.1,1,0.4c0.3,0.3,0.4,0.6,0.4,1v7.3
			c0,0.8,0.3,1.5,0.9,2.1c0.6,0.6,1.3,0.9,2.1,0.9s1.5-0.3,2.1-0.9c0.6-0.6,0.9-1.3,0.9-2.1V25.2z"/>
		<path class="st1" d="M41.7,19.3c0-0.4,0.1-0.7,0.4-1c0.3-0.3,0.6-0.4,1-0.4s0.7,0.1,1,0.4c0.3,0.3,0.4,0.6,0.4,1v5.2
			c0.9-0.5,1.8-0.8,2.9-0.8c1.6,0,3,0.6,4.1,1.7s1.7,2.5,1.7,4.1v2.9c0,1.6-0.6,3-1.7,4.1s-2.5,1.7-4.1,1.7c-1.1,0-2.2-0.3-3.1-0.8
			c-0.1,0.1-0.2,0.3-0.3,0.4c-0.3,0.3-0.6,0.4-1,0.4s-0.7-0.1-1-0.4s-0.4-0.6-0.4-1V19.3z M44.6,29.6v2.9c0,0.8,0.3,1.5,0.9,2.1
			c0.6,0.6,1.3,0.9,2.1,0.9s1.5-0.3,2.1-0.9c0.6-0.6,0.9-1.3,0.9-2.1v-2.9c0-0.8-0.3-1.5-0.9-2.1c-0.6-0.6-1.3-0.9-2.1-0.9
			s-1.5,0.3-2.1,0.9C44.9,28.1,44.6,28.8,44.6,29.6z"/>
		<path class="st1" d="M59.3,32.5c0,0.8,0.3,1.5,0.9,2.1c0.6,0.6,1.5,0.9,2.8,0.9c1.1,0,1.9-0.3,2.5-0.9c0,0,0,0,0,0
			c0.3-0.3,0.6-0.4,1-0.4s0.7,0.1,1,0.4c0.3,0.3,0.4,0.6,0.4,1s-0.1,0.7-0.4,1c0,0,0,0,0,0l0,0c-1.1,1.1-2.7,1.7-4.6,1.7
			c-2.1,0-3.7-0.6-4.9-1.7s-1.7-2.5-1.7-4.1v-2.9c0-1.6,0.6-3,1.7-4.1s2.8-1.7,4.9-1.7c1.9,0,3.4,0.6,4.6,1.7l0,0c0,0,0,0,0,0
			c0.3,0.3,0.4,0.6,0.4,1s-0.1,0.7-0.4,1c-0.3,0.3-0.6,0.4-1,0.4s-0.7-0.1-1-0.4c0,0,0,0,0,0c-0.6-0.6-1.4-0.9-2.5-0.9
			c-1.3,0-2.2,0.3-2.8,0.9c-0.6,0.6-0.9,1.3-0.9,2.1V32.5z"/>
		<path class="st1" d="M73.9,32.5c0,0.8,0.3,1.5,0.9,2.1c0.6,0.6,1.5,0.9,2.8,0.9c1.1,0,1.9-0.3,2.5-0.9c0,0,0,0,0,0
			c0.3-0.3,0.6-0.4,1-0.4s0.7,0.1,1,0.4c0.3,0.3,0.4,0.6,0.4,1s-0.1,0.7-0.4,1c0,0,0,0,0,0l0,0c-1.1,1.1-2.7,1.7-4.6,1.7
			c-2.1,0-3.7-0.6-4.9-1.7S71,34.1,71,32.5v-2.9c0-1.6,0.6-3,1.7-4.1s2.8-1.7,4.9-1.7c1.9,0,3.4,0.6,4.6,1.7l0,0c0,0,0,0,0,0
			c0.3,0.3,0.4,0.6,0.4,1s-0.1,0.7-0.4,1c-0.3,0.3-0.6,0.4-1,0.4s-0.7-0.1-1-0.4c0,0,0,0,0,0c-0.6-0.6-1.4-0.9-2.5-0.9
			c-1.3,0-2.2,0.3-2.8,0.9c-0.6,0.6-0.9,1.3-0.9,2.1V32.5z"/>
		<path class="st1" d="M94.4,35.4h1.5c0.4,0,0.7,0.1,1,0.4c0.3,0.3,0.4,0.6,0.4,1s-0.1,0.7-0.4,1c-0.3,0.3-0.6,0.4-1,0.4h-1.5
			c-1.6,0-3-0.6-4.1-1.7s-1.7-2.5-1.7-4.1v-5.9h-1.5c-0.4,0-0.7-0.1-1-0.4s-0.4-0.6-0.4-1s0.1-0.7,0.4-1c0.3-0.3,0.6-0.4,1-0.4h1.5
			v-4.4c0-0.4,0.1-0.7,0.4-1c0.3-0.3,0.6-0.4,1-0.4s0.7,0.1,1,0.4c0.3,0.3,0.4,0.6,0.4,1v4.4h4.4c0.4,0,0.7,0.1,1,0.4
			c0.3,0.3,0.4,0.6,0.4,1s-0.1,0.7-0.4,1c-0.3,0.3-0.6,0.4-1,0.4h-4.4v5.9c0,0.8,0.3,1.5,0.9,2.1C92.9,35.2,93.6,35.4,94.4,35.4z"/>
		<path class="st1" d="M109.1,17.9h1.5c0.4,0,0.7,0.1,1,0.4c0.3,0.3,0.4,0.6,0.4,1s-0.1,0.7-0.4,1c-0.3,0.3-0.6,0.4-1,0.4h-1.5
			c-0.8,0-1.5,0.3-2.1,0.9c-0.6,0.6-0.9,1.3-0.9,2.1h4.4c0.4,0,0.7,0.1,1,0.4c0.3,0.3,0.4,0.6,0.4,1s-0.1,0.7-0.4,1
			c-0.3,0.3-0.6,0.4-1,0.4h-4.4v10.3c0,0.4-0.1,0.7-0.4,1c-0.3,0.3-0.6,0.4-1,0.4s-0.7-0.1-1-0.4s-0.4-0.6-0.4-1V26.7h-1.5
			c-0.4,0-0.7-0.1-1-0.4s-0.4-0.6-0.4-1s0.1-0.7,0.4-1c0.3-0.3,0.6-0.4,1-0.4h1.5c0-1.6,0.6-3,1.7-4.1S107.5,17.9,109.1,17.9z"/>
	</g>
	<use xlink:href="#SVGID_1_"  style="overflow:visible;fill:none;stroke:#ED5454;stroke-width:3;stroke-miterlimit:10;"/>
</g>
</svg>
