<?xml version="1.0" encoding="utf-8"?>
<!-- Generator: Adobe Illustrator 21.1.0, SVG Export Plug-In . SVG Version: 6.00 Build 0)  -->
<svg version="1.1" id="Layer_2" xmlns="http://www.w3.org/2000/svg" xmlns:xlink="http://www.w3.org/1999/xlink" x="0px" y="0px"
	 viewBox="0 0 200 200" style="enable-background:new 0 0 200 200;" xml:space="preserve">
<style type="text/css">
	.st0{clip-path:url(#SVGID_2_);}
	.st1{fill:#ED5454;}
	.st2{font-family:'CQMono';}
	.st3{font-size:30px;}
</style>
<g>
	<defs>
		<path id="SVGID_1_" d="M32.4,30c0,0,0,27.5,0,41.1C32.4,134,74.8,180,99.3,180s68.3-45.9,68.3-108.9c0-15.6,0-35.9,0-41.1
			s-54-10-69.1-10S32.4,23.9,32.4,30z"/>
	</defs>
	<clipPath id="SVGID_2_">
		<use xlink:href="#SVGID_1_"  style="overflow:visible;"/>
	</clipPath>
	<g class="st0">
		<path class="st1" d="M159.4,65c-2.3,1.2-3.9,1.9-6.2,1.9c0,0,0,0,0,0c-3.1,0-5.1-0.9-7.6-2.1c-2.7-1.3-5.8-2.7-10.2-2.7
			c-4.3,0-7.7,1.4-10.6,2.7c-2.7,1.1-5,2.1-8,2.1c-2.4,0-3.5-0.6-5.4-1.7c-2.4-1.3-5.7-3.2-11.4-3.2c-6.4,0-10.4,2-13.6,3.5
			c-2.3,1.2-3.8,1.9-6.2,1.9c0,0,0,0,0,0c-3.1,0-5.1-0.9-7.6-2.1c-2.7-1.3-5.8-2.7-10.2-2.7c-4.3,0-7.7,1.4-10.6,2.7
			c-2.7,1.1-5,2.1-8,2.1c-2.4,0-3.5-0.6-5.4-1.7c-2.4-1.3-5.7-3.1-11.3-3.1v11c2.8,0,4.1,0.7,6,1.8c2.4,1.3,5.5,3,10.7,3
			c5.1,0,9.1-1.6,12.2-3c2.4-1,4.3-1.8,6.4-1.8c1.9,0,3.5,0.7,5.6,1.7c3,1.4,6.7,3.1,12.2,3.1c0,0,0.1,0,0.1,0
			c4.9,0,8.3-1.7,11.1-3.1c2.7-1.3,4.8-2.4,8.7-2.4c2.8,0,4.1,0.7,6.1,1.8c2.5,1.4,5.5,3,10.7,3c5.1,0,9.1-1.6,12.2-3
			c2.4-1,4.3-1.8,6.4-1.8c1.9,0,3.5,0.7,5.6,1.7c3,1.4,6.7,3.1,12.2,3.1c0,0,0.1,0,0.1,0c4.9,0,8.3-1.7,11.1-3.1
			c2.7-1.3,4.8-2.4,8.7-2.4v-11C166.5,61.5,162.5,63.4,159.4,65z"/>
		<path class="st1" d="M153.2,83.9C153.2,83.9,153.1,83.9,153.2,83.9c-3.2,0-5.2-0.9-7.7-2.1c-2.7-1.3-5.8-2.7-10.2-2.7
			c-4.3,0-7.7,1.4-10.6,2.7c-2.7,1.1-5,2.1-8,2.1c-2.4,0-3.5-0.6-5.4-1.7c-1.9-1-4.3-2.4-7.9-2.9c0,0,0-0.1-0.1-0.1
			c-0.8-1.2-2-1.8-3.3-1.8c-1.2,0-2.3,0.7-3,1.8c-4.8,0.5-8,2.1-10.7,3.4c-2.3,1.2-3.8,1.9-6.2,1.9c0,0,0,0,0,0
			c-3.1,0-5.1-0.9-7.6-2.1c-2.7-1.3-5.8-2.7-10.2-2.7c-4.3,0-7.7,1.4-10.6,2.7c-2.7,1.1-5,2.1-8,2.1c-2.4,0-3.5-0.6-5.4-1.7
			c-2.4-1.3-5.7-3.1-11.3-3.1v11c2.8,0,4.1,0.7,6,1.8c2.4,1.3,5.5,3,10.7,3c5.1,0,9.1-1.6,12.2-3c2.4-1,4.3-1.8,6.4-1.8
			c1.9,0,3.5,0.7,5.6,1.7c2.7,1.2,5.9,2.7,10.6,3c0.3,1.6,0.8,3.9,1.2,6c-2.9-0.1-4.8-1-7.2-2.1c-2.7-1.3-5.8-2.7-10.2-2.7
			c-4.3,0-7.7,1.4-10.6,2.7c-2.7,1.1-5,2.1-8,2.1c-2.4,0-3.5-0.6-5.4-1.7c-2.4-1.3-5.7-3.1-11.3-3.1v11c2.8,0,4.1,0.7,6,1.8
			c2.4,1.3,5.5,3,10.7,3c5.1,0,9.1-1.6,12.2-3c0.3-0.1,0.5-0.2,0.8-0.3c0,0.9,0.3,1.8,0.4,2.1l3,10.4l-4,2.7c-1.5,1-1.8,2.1-1.8,2.8
			c0,1.7,1.6,2.8,1.7,2.9L75.6,145c-0.7,1.9-2.2,5.9-2.5,6.9c-0.4,1-0.2,2,0.3,2.8c1.1,1.5,3.4,1.6,3.9,1.6c0.1,0,0.2,0,0.4,0
			l22.2-4.8c2.7,0.6,20.4,4.5,22,4.9c0.4,0.1,0.8,0.1,1.2,0.1c1.1,0,2.3-0.3,3.1-1.1c0.8-0.8,1.1-1.9,0.9-3.1
			c-0.3-1.6-1.1-5.3-1.5-7c3.3-2.7,16.9-14.1,18-15c1-0.8,2.1-2,2-3.5c0-0.5-0.3-1.5-1.5-2.2c-1-0.6-2.9-1.8-4-2.6
			c0.8-2.6,2.7-9,3.1-10.5c0.1-0.5,0.2-0.9,0.1-1.4c2.6,1.1,5.7,2.1,9.9,2.1c4.9,0,8.4-1.7,11.2-3.1c2.7-1.3,4.8-2.4,8.7-2.4v-11
			c-6.4,0-10.4,2-13.6,3.5c-2.3,1.2-3.9,1.9-6.2,1.9c0,0,0,0,0,0c-3.1,0-5.1-0.9-7.6-2.1c-2.7-1.3-5.8-2.7-10.2-2.7
			c-4.3,0-7.7,1.4-10.6,2.7c-1.6,0.7-3.1,1.3-4.7,1.7c0.3-2.2,0.6-4.4,0.8-5.9c3.2-0.6,5.9-1.7,8.1-2.6c2.4-1,4.3-1.8,6.4-1.8
			c1.9,0,3.5,0.7,5.6,1.7c3,1.4,6.7,3.1,12.2,3.1c0,0,0.1,0,0.1,0c4.9,0,8.3-1.7,11.1-3.1c2.7-1.3,4.8-2.4,8.7-2.4v-11
			c-6.4,0-10.4,2-13.6,3.5C157,83.2,155.5,83.9,153.2,83.9z M116.6,110.3c0.6,0.3,1.3,0.2,1.7-0.2c0,0,3.9-3.6,5.3-4.8
			c0.9-0.7,1.4-0.7,1.5-0.7c0,0,0.1,0.1,0.2,0.3c0.7,1.8,1.4,5.2,1.4,5.3c0.1,0.4,0.3,0.7,0.7,0.9c0.3,0.2,0.8,0.3,1.1,0.2
			c0.1,0,7.7-1.8,10-2.3c0.6-0.1,1.1,0,1.4,0.4c0.3,0.3,0.4,0.7,0.3,1.1c-0.5,1.8-3.3,11.3-3.4,11.4c-0.2,0.6,0,1.3,0.6,1.7
			c0.1,0.1,3.5,2.4,5.1,3.3c-0.1,0.2-0.3,0.5-0.8,0.8c-1.2,1-18,15-18.7,15.6c-0.4,0.4-0.6,0.9-0.5,1.5c0,0.1,1.3,5.8,1.7,7.8
			c0.1,0.3,0,0.4,0,0.4c-0.2,0.2-0.9,0.4-1.6,0.2c-1.7-0.3-22.1-4.9-22.3-4.9c-0.1,0-0.2,0-0.3,0c-0.1,0-0.2,0-0.3,0l-22.4,4.9
			c-0.5,0-1.1-0.2-1.3-0.3c0,0,0-0.1,0-0.1c0.4-1.2,2.8-7.8,2.9-7.8c0.2-0.6,0-1.3-0.5-1.7l-20.6-15.6c-0.2-0.1-0.4-0.4-0.4-0.4
			c0,0,0.1-0.2,0.4-0.4l4.9-3.3c0.5-0.4,0.8-1,0.6-1.7l-3.3-11.5c0,0,0-0.1,0-0.1c-0.2-0.4-0.3-1.1-0.2-1.3c0,0,0.3-0.1,1,0
			c4.1,0.8,10.6,1.9,10.7,1.9c0.6,0.1,1.3-0.2,1.6-0.8l2.8-5c0,0,0.2-0.2,0.2-0.2c0,0,0.2,0.1,0.4,0.3c1.7,1.5,5.3,4.8,5.3,4.8
			c0.5,0.4,1.2,0.5,1.8,0.2c0.6-0.3,0.9-1,0.7-1.6c-1.3-6-3.2-15.3-3.3-16.2c0-0.1,0.1-0.3,0.3-0.5c0.2-0.1,0.3-0.1,0.6-0.1
			c1.7,0.6,8.1,3,8.1,3c0.7,0.3,1.4,0,1.8-0.7c0,0,7-12.1,7.9-13.6c0.1-0.3,0.3-0.4,0.5-0.4c0.2,0,0.5,0.2,0.7,0.5
			c0.8,1.2,5.4,9.3,7.7,13.5c0.4,0.7,1.3,1,2,0.6c0.2-0.1,5.3-2.7,6.6-3.4c0.2-0.1,0.6-0.1,0.8,0.1c0.2,0.1,0.2,0.3,0.2,0.5
			c-0.2,1.8-2.3,16.5-2.3,16.7C115.7,109.4,116,110,116.6,110.3z"/>
		<path class="st1" d="M104.7,120.1v-3.1c0-2.1-2.1-3.7-4.7-3.7s-4.7,1.6-4.7,3.7v3.1c-1.2,0.4-2.2,1.5-2.2,2.9v6.9c0,1.7,1.4,3,3,3
			h7.8c1.7,0,3-1.3,3-3V123C106.9,121.6,106,120.5,104.7,120.1z M100,115.3c1.5,0,2.7,0.8,2.7,1.7v2.9h-5.5v-2.9
			C97.3,116.1,98.5,115.3,100,115.3z M100.7,127.2c0,1.9-0.1,2.2-0.7,2.2c-0.6,0-0.7-0.3-0.7-2.2c-0.4-0.2-0.6-0.6-0.6-1
			c0-0.7,0.6-1.2,1.3-1.2c0.7,0,1.3,0.5,1.3,1.2C101.3,126.6,101.1,127,100.7,127.2z"/>
	</g>
	<g class="st0">
		<text transform="matrix(1 0 0 1 56.055 54.3758)" class="st1 st2 st3">ubcctf</text>
	</g>
	<use xlink:href="#SVGID_1_"  style="overflow:visible;fill:none;stroke:#ED5454;stroke-width:3;stroke-miterlimit:10;"/>
</g>
</svg>
