<svg id="Layer_2" data-name="Layer 2" xmlns="http://www.w3.org/2000/svg" xmlns:xlink="http://www.w3.org/1999/xlink" viewBox="0 0 146.01 162.94"><defs><style>.cls-1{fill:none;stroke:#ed5454;stroke-miterlimit:10;stroke-width:3px;}.cls-2{clip-path:url(#clip-path);}.cls-3,.cls-4{fill:#ed5454;}.cls-4{font-size:30px;font-family:CQMono, CQ Mono;}</style><clipPath id="clip-path" transform="translate(-61.67 -53.15)"><path class="cls-1" d="M67.14,64.65v41.1c0,62.91,42.41,108.85,66.91,108.85s68.33-45.94,68.33-108.85V64.65c0-5.18-54-10-69.09-10S67.14,58.52,67.14,64.65Z"/></clipPath></defs><title>logo</title><g class="cls-2"><path class="cls-3" d="M194.11,99.63c-2.32,1.15-3.85,1.91-6.19,1.91h0c-3.15,0-5.13-.93-7.64-2.09a22.77,22.77,0,0,0-10.19-2.71c-4.26,0-7.65,1.42-10.64,2.68-2.71,1.14-5,2.12-8,2.12A9.56,9.56,0,0,1,146,99.87a21.39,21.39,0,0,0-11.4-3.17,27.66,27.66,0,0,0-13.56,3.54c-2.31,1.15-3.84,1.91-6.17,1.91h0c-3.15,0-5.13-.93-7.64-2.09A22.77,22.77,0,0,0,97,97.35c-4.26,0-7.65,1.42-10.64,2.68-2.71,1.14-5,2.12-8,2.12A9.47,9.47,0,0,1,73,100.5a21.29,21.29,0,0,0-11.34-3.15v11a10.53,10.53,0,0,1,6,1.78,20,20,0,0,0,10.7,3c5.14,0,9.08-1.65,12.23-3,2.42-1,4.34-1.82,6.39-1.82s3.45.71,5.57,1.69a27.13,27.13,0,0,0,12.23,3.11h.08A23.27,23.27,0,0,0,126,110.08c2.68-1.33,4.8-2.39,8.67-2.39a10.61,10.61,0,0,1,6.06,1.8,20.06,20.06,0,0,0,10.74,3c5.14,0,9.07-1.65,12.23-3,2.43-1,4.34-1.82,6.39-1.82s3.45.71,5.57,1.69a27.13,27.13,0,0,0,12.23,3.11h.08A23.32,23.32,0,0,0,199,109.48c2.69-1.34,4.81-2.39,8.67-2.39v-11A27.7,27.7,0,0,0,194.11,99.63Z" transform="translate(-61.67 -53.15)"/><path class="cls-3" d="M187.92,118.54h0c-3.15,0-5.13-.93-7.64-2.09a22.77,22.77,0,0,0-10.19-2.71c-4.26,0-7.65,1.42-10.64,2.68-2.71,1.14-5,2.12-8,2.12a9.56,9.56,0,0,1-5.42-1.67A22.23,22.23,0,0,0,138.1,114l-.07-.11a3.92,3.92,0,0,0-3.26-1.83,3.65,3.65,0,0,0-3,1.81,28.6,28.6,0,0,0-10.71,3.4c-2.31,1.15-3.84,1.91-6.17,1.91h0c-3.15,0-5.13-.93-7.64-2.09A22.77,22.77,0,0,0,97,114.35c-4.26,0-7.65,1.42-10.64,2.68-2.71,1.14-5,2.12-8,2.12A9.47,9.47,0,0,1,73,117.49a21.29,21.29,0,0,0-11.34-3.15v11a10.53,10.53,0,0,1,6,1.78,20,20,0,0,0,10.7,3c5.14,0,9.08-1.65,12.23-3,2.42-1,4.34-1.82,6.39-1.82s3.45.71,5.57,1.69a28.09,28.09,0,0,0,10.55,3c.33,1.64.78,3.86,1.24,6A17.08,17.08,0,0,1,107.2,134,22.77,22.77,0,0,0,97,131.34c-4.26,0-7.65,1.42-10.64,2.68-2.71,1.14-5,2.12-8,2.12A9.47,9.47,0,0,1,73,134.49a21.29,21.29,0,0,0-11.34-3.15v11a10.53,10.53,0,0,1,6,1.78,20,20,0,0,0,10.7,3c5.14,0,9.08-1.65,12.23-3l.82-.34a6.33,6.33,0,0,0,.39,2.14l3,10.36-4,2.67A3.38,3.38,0,0,0,89,161.82a3.86,3.86,0,0,0,1.69,2.89l19.62,14.91c-.71,1.93-2.17,5.91-2.5,6.85a3,3,0,0,0,.31,2.79c1.07,1.49,3.36,1.58,3.93,1.58a1.5,1.5,0,0,0,.35,0L134.66,186c2.72.6,20.43,4.52,22,4.85a6,6,0,0,0,1.21.12,4.41,4.41,0,0,0,3.14-1.15,3.33,3.33,0,0,0,.86-3.12c-.32-1.62-1.13-5.3-1.51-7,3.27-2.73,16.9-14.1,18-15s2.08-2,2-3.5a2.82,2.82,0,0,0-1.53-2.24c-1-.56-2.88-1.84-4-2.6.77-2.57,2.68-9,3.07-10.48a4.08,4.08,0,0,0,.11-1.4,24.89,24.89,0,0,0,9.89,2.07A23.38,23.38,0,0,0,199,143.47c2.69-1.34,4.81-2.39,8.67-2.39v-11a27.7,27.7,0,0,0-13.57,3.54c-2.32,1.15-3.85,1.91-6.19,1.91h0c-3.15,0-5.13-.93-7.64-2.09a22.77,22.77,0,0,0-10.19-2.71c-4.26,0-7.65,1.42-10.64,2.68a32.84,32.84,0,0,1-4.67,1.69c.3-2.21.6-4.38.82-5.94a36.72,36.72,0,0,0,8.11-2.61c2.43-1,4.34-1.82,6.39-1.82s3.45.71,5.57,1.69a27.13,27.13,0,0,0,12.23,3.11h.08A23.32,23.32,0,0,0,199,126.47c2.69-1.34,4.81-2.39,8.67-2.39v-11a27.7,27.7,0,0,0-13.57,3.54C191.8,117.77,190.26,118.54,187.92,118.54ZM151.35,145a1.5,1.5,0,0,0,1.72-.24s3.89-3.64,5.31-4.76a2.68,2.68,0,0,1,1.48-.73.78.78,0,0,1,.17.32c.66,1.85,1.43,5.24,1.43,5.28a1.5,1.5,0,0,0,1.81,1.13c.08,0,7.68-1.82,10-2.28a1.47,1.47,0,0,1,1.41.36,1.14,1.14,0,0,1,.29,1.07c-.46,1.75-3.32,11.33-3.35,11.43a1.5,1.5,0,0,0,.59,1.67c.14.1,3.54,2.43,5.07,3.32a3.45,3.45,0,0,1-.79.84c-1.25,1-18,15-18.72,15.59a1.5,1.5,0,0,0-.5,1.48c0,.06,1.28,5.77,1.69,7.84.06.31,0,.38,0,.4a2.12,2.12,0,0,1-1.63.22c-1.66-.35-22.09-4.87-22.29-4.92a1.51,1.51,0,0,0-.32,0,1.53,1.53,0,0,0-.32,0L112,187.85a3.44,3.44,0,0,1-1.32-.29l0-.09c.42-1.2,2.84-7.78,2.86-7.84a1.5,1.5,0,0,0-.5-1.71L92.46,162.28c-.19-.13-.41-.38-.45-.4s.07-.15.44-.4l4.92-3.28a1.5,1.5,0,0,0,.61-1.66L94.7,145.07l0-.14a3.79,3.79,0,0,1-.25-1.29,1.91,1.91,0,0,1,1,0c4.07.82,10.65,1.93,10.71,1.95a1.49,1.49,0,0,0,1.56-.75l2.79-5a.78.78,0,0,1,.22-.18.94.94,0,0,1,.4.25c1.75,1.54,5.34,4.82,5.34,4.83a1.5,1.5,0,0,0,2.48-1.42c-1.27-6-3.2-15.35-3.31-16.17a.67.67,0,0,1,.26-.46.53.53,0,0,1,.56-.05l8.14,3a1.5,1.5,0,0,0,1.81-.65s7-12.06,7.91-13.55a.68.68,0,0,1,.54-.4.85.85,0,0,1,.67.46c.78,1.21,5.38,9.34,7.7,13.47a1.5,1.5,0,0,0,2,.61c.22-.11,5.31-2.67,6.65-3.37a.86.86,0,0,1,.8.09.45.45,0,0,1,.2.48c-.23,1.85-2.27,16.52-2.29,16.67A1.5,1.5,0,0,0,151.35,145Z" transform="translate(-61.67 -53.15)"/><path class="cls-3" d="M139.5,154.73v-3.06c0-2.08-2.08-3.72-4.75-3.72s-4.75,1.63-4.75,3.72v3.06a3,3,0,0,0-2.16,2.87v6.91a3,3,0,0,0,3,3h7.82a3,3,0,0,0,3-3v-6.91A3,3,0,0,0,139.5,154.73ZM134.76,150c1.46,0,2.75.8,2.75,1.72v2.92H132v-2.92C132,150.76,133.3,150,134.76,150Zm.67,11.86c0,1.86-.13,2.21-.67,2.21s-.69-.31-.69-2.22a1.2,1.2,0,0,1-.63-1,1.32,1.32,0,0,1,2.63,0A1.2,1.2,0,0,1,135.43,161.81Z" transform="translate(-61.67 -53.15)"/><text class="cls-4" transform="translate(29.14 35.85)">ubcctf</text></g><path class="cls-1" d="M67.14,64.65v41.1c0,62.91,42.41,108.85,66.91,108.85s68.33-45.94,68.33-108.85V64.65c0-5.18-54-10-69.09-10S67.14,58.52,67.14,64.65Z" transform="translate(-61.67 -53.15)"/></svg>